<?xml version="1.0" encoding="UTF-8"?><svg id="a" xmlns="http://www.w3.org/2000/svg" viewBox="0 0 205.85 113.32"><defs><style>.t{opacity:.05;}.u{stroke:#2f64ad;}.u,.v{fill:none;stroke-miterlimit:10;}.v{stroke:#d12627;}</style></defs><g id="b" class="t"><path class="u" d="M51.84,33.13c-1.46,2.12-6.5,1.22-9.63-.25-.79-.37-4.72-2.23-4.5-4.47,.12-1.22,1.43-2.03,1.49-2.06,1.58-.94,2.67,.33,4.33-.41,1.43-.64,1.05-1.78,3.13-3.21,.78-.53,1.79-1.21,2.83-.91,.89,.26,1.35,1.1,1.67,1.71,0,0,.06,.1,.11,.21,.77,1.62,.6,4.85,.6,4.85-.02,.27-.03,.67-.03,1.15,0,.88,0,1.32,.07,1.68,.11,.54,.44,.99-.07,1.72Z"/><path class="u" d="M55.05,23.41c-.32-.12-1.85-.69-3.25,.07-.44,.22-.81,.56-1.07,.98-.68,1.11-.24,2.39-.16,2.64,.33,.95,.82,1.09,1.6,2.18,.4,.55,.75,.95,1.01,1.63,.14,.34,.23,.69,.28,1.05,.16,1.25-.42,1.82-.15,2.11,.48,.51,2.11-.32,4.06-1.32,2.73-1.39,3.13-2.07,3.31-2.58,.06-.18,.42-1.31-.19-2.02-.52-.61-1.44-.56-1.57-.55-.94,.06-1.08,.71-1.96,.77-.36,.02-.75-.15-.93-.21-.28-.1-.55-.23-.81-.38-1.17-.63-1.39-.88-2.02-1.03-.23-.06-.47-.08-.71-.08-.29-.02-.57,.04-.83,.17-.13,.07-.25,.16-.35,.27-.37,.39-.39,1.22-.17,1.94,.31,1,1.21,2.12,1.16,2.45-.03,.14-.07,.29-.14,.42,0,0-.02,.04-.04,.08-.1,.17-.35,.44-.55,.44-.27,0-.32-.5-.68-.93-.25-.31-.55-.46-1.41-.74-1.3-.43-1.57-.41-2.45-.7-1.25-.42-1.96-.67-2.21-1.31-.25-.68,.18-1.35,.22-1.42,.55-.85,1.63-.8,1.67-.8,.66,.04,.67,.42,1.52,.68,.23,.07,1.32,.37,2.32-.1,.46-.22,.46-.39,1.03-.62,.42-.16,.87-.25,1.32-.27,.5-.07,1.02-.07,1.52,0,.64,.11,1.29,.22,1.61,.74,.12,.19,.13,.46,.16,1,.04,.62-.05,.81-.09,.88-.11,.19-.24,.24-.63,.47-.55,.33-1.08,.7-1.59,1.08-.17,.12-.33,.24-.48,.38-.36,.34-.54,.61-.97,1.22-.45,.64-.68,.96-.69,.95-.08-.04,.12-1.09,.88-1.67,.09-.07,.44-.21,1.14-.5,.78-.32,1.17-.48,1.28-.51,.43-.14,.62-.16,.85-.36,.09-.08,.39-.35,.37-.69-.01-.17-.2-.37-.57-.77-.34-.36-.44-.42-.5-.45-.23-.12-.48-.16-.74-.14"/><path class="u" d="M41.73,29.79c-.12,.78,.73,1.47,1.22,1.86,.95,.76,1.86,.99,3.45,1.36,1.85,.44,2.77,.65,3.65,.41,.74-.2,1.34-.59,1.84-.29,.41,.25,.24,.65,.64,1.04,.43,.42,1.06,.37,2.92,.2,1.33-.12,1.99-.18,2.14-.2,2.57-.34,3.86-.52,4.36-.7,.83-.31,3.07-1.15,3.61-3.14,.21-.87,.11-1.79-.3-2.59-.07-.14-.78-1.4-2.2-1.77-1.73-.45-2.68,.9-4.05,.27-.53-.24-.39-.44-1.47-1.38-.92-.8-1.98-1.72-2.47-1.46-.77,.41,.78,3.33-.34,4.31-.6,.52-1.26-.09-3.18,.3-1.47,.31-1.41,.73-2.48,.8-1.37,.08-1.6-.62-3.5-.73-1.24-.07-1.94,.19-2.21,.3-.44,.18-1.48,.61-1.59,1.41Z"/><path class="u" d="M49.93,40.48c1.61-1.9,.6-2.14,.85-2.66,.23-.48,.58-.63,.65-1.23,.08-.71-.33-1.06-.34-1.79-.01-.43,.11-1.03,.71-1.7"/></g><g id="c" class="t"><path class="v" d="M21.42,19.18c2.49,2.17,8.49-.54,11.92-3.37,.87-.71,5.17-4.27,4.18-6.99-.54-1.49-2.43-2.07-2.52-2.09-2.26-.67-3.23,1.26-5.52,.87-1.99-.35-1.87-1.89-4.92-3-1.14-.42-2.61-.93-3.81-.24-1.02,.59-1.33,1.79-1.53,2.64,0,0-.04,.14-.07,.3-.44,2.26,.78,6.23,.78,6.23,.11,.33,.25,.82,.41,1.42,.27,1.1,.41,1.64,.44,2.11,.04,.71-.23,1.37,.63,2.13Z"/><path class="v" d="M14.33,8.09c.35-.25,2.09-1.45,4.08-.94,.62,.14,1.19,.44,1.65,.87,1.2,1.17,1.06,2.9,1.03,3.23-.1,1.29-.68,1.62-1.31,3.22-.32,.82-.63,1.42-.75,2.35-.07,.46-.07,.93-.02,1.39,.19,1.6,1.1,2.13,.86,2.58-.43,.79-2.73,.27-5.48-.35-3.83-.87-4.56-1.58-4.94-2.17-.14-.21-.94-1.49-.4-2.58,.46-.92,1.62-1.15,1.78-1.18,1.19-.22,1.57,.55,2.69,.33,.46-.09,.89-.43,1.09-.56,.32-.22,.62-.46,.9-.73,1.26-1.16,1.45-1.53,2.19-1.93,.27-.14,.56-.25,.85-.32,.35-.11,.72-.13,1.09-.06,.18,.05,.36,.12,.52,.22,.59,.37,.87,1.39,.82,2.36-.07,1.35-.84,3.03-.67,3.42,.07,.17,.17,.33,.29,.48,0,0,.04,.05,.08,.09,.17,.17,.58,.44,.83,.37,.33-.09,.24-.72,.54-1.37,.22-.47,.55-.75,1.52-1.37,1.49-.95,1.83-1.01,2.84-1.65,1.44-.92,2.25-1.45,2.35-2.33,.1-.92-.65-1.64-.72-1.7-.96-.87-2.27-.48-2.34-.47-.81,.26-.7,.73-1.68,1.32-.27,.16-1.53,.87-2.92,.61-.64-.12-.7-.34-1.48-.44-.58-.06-1.16-.04-1.73,.07-.65,.07-1.29,.24-1.89,.49-.77,.35-1.54,.68-1.77,1.43-.08,.28,0,.63,.13,1.31,.15,.79,.32,.99,.39,1.06,.19,.2,.37,.23,.93,.39,0,0,1.08,.32,2.32,.85,.25,.1,.49,.21,.72,.33,.56,.3,.86,.59,1.6,1.22,.77,.65,1.15,.98,1.16,.97,.08-.07-.49-1.32-1.63-1.8-.13-.05-.62-.12-1.59-.26-1.07-.15-1.61-.22-1.74-.23-.58-.03-.83,0-1.18-.17-.14-.07-.6-.31-.68-.74-.04-.21,.13-.52,.47-1.14,.31-.56,.42-.67,.48-.72,.25-.21,.55-.35,.87-.39"/><path class="v" d="M32.95,11.82c.39,.94-.45,2.06-.93,2.71-.93,1.25-2,1.82-3.86,2.79-2.17,1.13-3.25,1.69-4.42,1.67-.98-.02-1.86-.31-2.38,.22-.43,.44-.09,.89-.46,1.49-.4,.65-1.21,.8-3.57,1.18-1.69,.27-2.54,.4-2.73,.43-3.31,.39-4.97,.58-5.65,.51-1.13-.12-4.19-.46-5.48-2.76-.87-1.53-.49-3.14-.44-3.33s.52-1.99,2.19-2.91c2.01-1.11,3.62,.27,5.13-.96,.58-.47,.35-.68,1.39-2.18,.89-1.28,1.93-2.77,2.61-2.6,1.09,.27,.08,4.39,1.8,5.27,.91,.46,1.53-.52,4.06-.63,1.94-.09,1.99,.47,3.35,.21,1.74-.33,1.79-1.28,4.12-2.02,1.53-.48,2.48-.38,2.84-.33,.61,.09,2.04,.3,2.44,1.25Z"/><path class="v" d="M25.01,27.13c-2.61-1.85-1.42-2.48-1.9-3.04-.44-.52-.92-.6-1.2-1.33-.32-.85,.07-1.42-.14-2.34-.12-.54-.46-1.24-1.43-1.89"/></g><g id="d" class="t"><path class="u" d="M51.84,66.99c-1.46,2.12-6.5,1.22-9.63-.25-.79-.37-4.72-2.23-4.5-4.47,.12-1.22,1.43-2.03,1.49-2.06,1.58-.94,2.67,.33,4.33-.41,1.43-.64,1.05-1.78,3.13-3.21,.78-.53,1.79-1.21,2.83-.91,.89,.26,1.35,1.1,1.67,1.71,0,0,.06,.1,.11,.21,.77,1.62,.6,4.85,.6,4.85-.02,.27-.03,.67-.03,1.15,0,.88,0,1.32,.07,1.68,.11,.54,.44,.99-.07,1.72Z"/><path class="u" d="M55.05,57.27c-.32-.12-1.85-.69-3.25,.07-.44,.22-.81,.56-1.07,.98-.68,1.11-.24,2.39-.16,2.64,.33,.95,.82,1.09,1.6,2.18,.4,.55,.75,.95,1.01,1.63,.14,.34,.23,.69,.28,1.05,.16,1.25-.42,1.82-.15,2.11,.48,.51,2.11-.32,4.06-1.32,2.73-1.39,3.13-2.07,3.31-2.58,.06-.18,.42-1.31-.19-2.02-.52-.61-1.44-.56-1.57-.55-.94,.06-1.08,.71-1.96,.77-.36,.02-.75-.15-.93-.21-.28-.1-.55-.23-.81-.38-1.17-.63-1.39-.88-2.02-1.03-.23-.06-.47-.08-.71-.08-.29-.02-.57,.04-.83,.17-.13,.07-.25,.16-.35,.27-.37,.39-.39,1.22-.17,1.94,.31,1,1.21,2.12,1.16,2.45-.03,.14-.07,.29-.14,.42,0,0-.02,.04-.04,.08-.1,.17-.35,.44-.55,.44-.27,0-.32-.5-.68-.93-.25-.31-.55-.46-1.41-.74-1.3-.43-1.57-.41-2.45-.7-1.25-.42-1.96-.67-2.21-1.31-.25-.68,.18-1.35,.22-1.42,.55-.85,1.63-.8,1.67-.8,.66,.04,.67,.42,1.52,.68,.23,.07,1.32,.37,2.32-.1,.46-.22,.46-.39,1.03-.62,.42-.16,.87-.25,1.32-.27,.5-.07,1.02-.07,1.52,0,.64,.11,1.29,.22,1.61,.74,.12,.19,.13,.46,.16,1,.04,.62-.05,.81-.09,.88-.11,.19-.24,.24-.63,.47-.55,.33-1.08,.7-1.59,1.08-.17,.12-.33,.24-.48,.38-.36,.34-.54,.61-.97,1.22-.45,.64-.68,.96-.69,.95-.08-.04,.12-1.09,.88-1.67,.09-.07,.44-.21,1.14-.5,.78-.32,1.17-.48,1.28-.51,.43-.14,.62-.16,.85-.36,.09-.08,.39-.35,.37-.69-.01-.17-.2-.37-.57-.77-.34-.36-.44-.42-.5-.45-.23-.12-.48-.16-.74-.14"/><path class="u" d="M41.73,63.65c-.12,.78,.73,1.47,1.22,1.86,.95,.76,1.86,.99,3.45,1.36,1.85,.44,2.77,.65,3.65,.41,.74-.2,1.34-.59,1.84-.29,.41,.25,.24,.65,.64,1.04,.43,.42,1.06,.37,2.92,.2,1.33-.12,1.99-.18,2.14-.2,2.57-.34,3.86-.52,4.36-.7,.83-.31,3.07-1.15,3.61-3.14,.21-.87,.11-1.79-.3-2.59-.07-.14-.78-1.4-2.2-1.77-1.73-.45-2.68,.9-4.05,.27-.53-.24-.39-.44-1.47-1.38-.92-.8-1.98-1.72-2.47-1.46-.77,.41,.78,3.33-.34,4.31-.6,.52-1.26-.09-3.18,.3-1.47,.31-1.41,.73-2.48,.8-1.37,.08-1.6-.62-3.5-.73-1.24-.07-1.94,.19-2.21,.3-.44,.18-1.48,.61-1.59,1.41Z"/><path class="u" d="M49.93,74.34c1.61-1.9,.6-2.14,.85-2.66,.23-.48,.58-.63,.65-1.23,.08-.71-.33-1.06-.34-1.79-.01-.43,.11-1.03,.71-1.7"/></g><g id="e" class="t"><path class="v" d="M21.42,53.04c2.49,2.17,8.49-.54,11.92-3.37,.87-.71,5.17-4.27,4.18-6.99-.54-1.49-2.43-2.07-2.52-2.09-2.26-.67-3.23,1.26-5.52,.87-1.99-.35-1.87-1.89-4.92-3-1.14-.42-2.61-.93-3.81-.24-1.02,.59-1.33,1.79-1.53,2.64,0,0-.04,.14-.07,.3-.44,2.26,.78,6.23,.78,6.23,.11,.33,.25,.82,.41,1.42,.27,1.1,.41,1.64,.44,2.11,.04,.71-.23,1.37,.63,2.13Z"/><path class="v" d="M14.33,41.95c.35-.25,2.09-1.45,4.08-.94,.62,.14,1.19,.44,1.65,.87,1.2,1.17,1.06,2.9,1.03,3.23-.1,1.29-.68,1.62-1.31,3.22-.32,.82-.63,1.42-.75,2.35-.07,.46-.07,.93-.02,1.39,.19,1.6,1.1,2.13,.86,2.58-.43,.79-2.73,.27-5.48-.35-3.83-.87-4.56-1.58-4.94-2.17-.14-.21-.94-1.49-.4-2.58,.46-.92,1.62-1.15,1.78-1.18,1.19-.22,1.57,.55,2.69,.33,.46-.09,.89-.43,1.09-.56,.32-.22,.62-.46,.9-.73,1.26-1.16,1.45-1.53,2.19-1.93,.27-.14,.56-.25,.85-.32,.35-.11,.72-.13,1.09-.06,.18,.05,.36,.12,.52,.22,.59,.37,.87,1.39,.82,2.36-.07,1.35-.84,3.03-.67,3.42,.07,.17,.17,.33,.29,.48,0,0,.04,.05,.08,.09,.17,.17,.58,.44,.83,.37,.33-.09,.24-.72,.54-1.37,.22-.47,.55-.75,1.52-1.37,1.49-.95,1.83-1.01,2.84-1.65,1.44-.92,2.25-1.45,2.35-2.33,.1-.92-.65-1.64-.72-1.7-.96-.87-2.27-.48-2.34-.47-.81,.26-.7,.73-1.68,1.32-.27,.16-1.53,.87-2.92,.61-.64-.12-.7-.34-1.48-.44-.58-.06-1.16-.04-1.73,.07-.65,.07-1.29,.24-1.89,.49-.77,.35-1.54,.68-1.77,1.43-.08,.28,0,.63,.13,1.31,.15,.79,.32,.99,.39,1.06,.19,.2,.37,.23,.93,.39,0,0,1.08,.32,2.32,.85,.25,.1,.49,.21,.72,.33,.56,.3,.86,.59,1.6,1.22,.77,.65,1.15,.98,1.16,.97,.08-.07-.49-1.32-1.63-1.8-.13-.05-.62-.12-1.59-.26-1.07-.15-1.61-.22-1.74-.23-.58-.03-.83,0-1.18-.17-.14-.07-.6-.31-.68-.74-.04-.21,.13-.52,.47-1.14,.31-.56,.42-.67,.48-.72,.25-.21,.55-.35,.87-.39"/><path class="v" d="M32.95,45.68c.39,.94-.45,2.06-.93,2.71-.93,1.25-2,1.82-3.86,2.79-2.17,1.13-3.25,1.69-4.42,1.67-.98-.02-1.86-.31-2.38,.22-.43,.44-.09,.89-.46,1.49-.4,.65-1.21,.8-3.57,1.18-1.69,.27-2.54,.4-2.73,.43-3.31,.39-4.97,.58-5.65,.51-1.13-.12-4.19-.46-5.48-2.76-.87-1.53-.49-3.14-.44-3.33s.52-1.99,2.19-2.91c2.01-1.11,3.62,.27,5.13-.96,.58-.47,.35-.68,1.39-2.18,.89-1.28,1.93-2.77,2.61-2.6,1.09,.27,.08,4.39,1.8,5.27,.91,.46,1.53-.52,4.06-.63,1.94-.09,1.99,.47,3.35,.21,1.74-.33,1.79-1.28,4.12-2.02,1.53-.48,2.48-.38,2.84-.33,.61,.09,2.04,.3,2.44,1.25Z"/><path class="v" d="M25.01,60.99c-2.61-1.85-1.42-2.48-1.9-3.04-.44-.52-.92-.6-1.2-1.33-.32-.85,.07-1.42-.14-2.34-.12-.54-.46-1.24-1.43-1.89"/></g><g id="f" class="t"><path class="u" d="M51.59,100.85c-1.46,2.12-6.5,1.22-9.63-.25-.79-.37-4.72-2.23-4.5-4.47,.12-1.22,1.43-2.03,1.49-2.06,1.58-.94,2.67,.33,4.33-.41,1.43-.64,1.05-1.78,3.13-3.21,.78-.53,1.79-1.21,2.83-.91,.89,.26,1.35,1.1,1.67,1.71,0,0,.06,.1,.11,.21,.77,1.62,.6,4.85,.6,4.85-.02,.27-.03,.67-.03,1.15,0,.88,0,1.32,.07,1.68,.11,.54,.44,.99-.07,1.72Z"/><path class="u" d="M54.8,91.13c-.32-.12-1.85-.69-3.25,.07-.44,.22-.81,.56-1.07,.98-.68,1.11-.24,2.39-.16,2.64,.33,.95,.82,1.09,1.6,2.18,.4,.55,.75,.95,1.01,1.63,.14,.34,.23,.69,.28,1.05,.16,1.25-.42,1.82-.15,2.11,.48,.51,2.11-.32,4.06-1.32,2.73-1.39,3.13-2.07,3.31-2.58,.06-.18,.42-1.31-.19-2.02-.52-.61-1.44-.56-1.57-.55-.94,.06-1.08,.71-1.96,.77-.36,.02-.75-.15-.93-.21-.28-.1-.55-.23-.81-.38-1.17-.63-1.39-.88-2.02-1.03-.23-.06-.47-.08-.71-.08-.29-.02-.57,.04-.83,.17-.13,.07-.25,.16-.35,.27-.37,.39-.39,1.22-.17,1.94,.31,1,1.21,2.12,1.16,2.45-.03,.14-.07,.29-.14,.42,0,0-.02,.04-.04,.08-.1,.17-.35,.44-.55,.44-.27,0-.32-.5-.68-.93-.25-.31-.55-.46-1.41-.74-1.3-.43-1.57-.41-2.45-.7-1.25-.42-1.96-.67-2.21-1.31-.25-.68,.18-1.35,.22-1.42,.55-.85,1.63-.8,1.67-.8,.66,.04,.67,.42,1.52,.68,.23,.07,1.32,.37,2.32-.1,.46-.22,.46-.39,1.03-.62,.42-.16,.87-.25,1.32-.27,.5-.07,1.02-.07,1.52,0,.64,.11,1.29,.22,1.61,.74,.12,.19,.13,.46,.16,1,.04,.62-.05,.81-.09,.88-.11,.19-.24,.24-.63,.47-.55,.33-1.08,.7-1.59,1.08-.17,.12-.33,.24-.48,.38-.36,.34-.54,.61-.97,1.22-.45,.64-.68,.96-.69,.95-.08-.04,.12-1.09,.88-1.67,.09-.07,.44-.21,1.14-.5,.78-.32,1.17-.48,1.28-.51,.43-.14,.62-.16,.85-.36,.09-.08,.39-.35,.37-.69-.01-.17-.2-.37-.57-.77-.34-.36-.44-.42-.5-.45-.23-.12-.48-.16-.74-.14"/><path class="u" d="M41.49,97.51c-.12,.78,.73,1.47,1.22,1.86,.95,.76,1.86,.99,3.45,1.36,1.85,.44,2.77,.65,3.65,.41,.74-.2,1.34-.59,1.84-.29,.41,.25,.24,.65,.64,1.04,.43,.42,1.06,.37,2.92,.2,1.33-.12,1.99-.18,2.14-.2,2.57-.34,3.86-.52,4.36-.7,.83-.31,3.07-1.15,3.61-3.14,.21-.87,.11-1.79-.3-2.59-.07-.14-.78-1.4-2.2-1.77-1.73-.45-2.68,.9-4.05,.27-.53-.24-.39-.44-1.47-1.38-.92-.8-1.98-1.72-2.47-1.46-.77,.41,.78,3.33-.34,4.31-.6,.52-1.26-.09-3.18,.3-1.47,.31-1.41,.73-2.48,.8-1.37,.08-1.6-.62-3.5-.73-1.24-.07-1.94,.19-2.21,.3-.44,.18-1.48,.61-1.59,1.41Z"/><path class="u" d="M49.68,108.2c1.61-1.9,.6-2.14,.85-2.66,.23-.48,.58-.63,.65-1.23,.08-.71-.33-1.06-.34-1.79-.01-.43,.11-1.03,.71-1.7"/></g><g id="g" class="t"><path class="v" d="M21.17,86.9c2.49,2.17,8.49-.54,11.92-3.37,.87-.71,5.17-4.27,4.18-6.99-.54-1.49-2.43-2.07-2.52-2.09-2.26-.67-3.23,1.26-5.52,.87-1.99-.35-1.87-1.89-4.92-3-1.14-.42-2.61-.93-3.81-.24-1.02,.59-1.33,1.79-1.53,2.64,0,0-.04,.14-.07,.3-.44,2.26,.78,6.23,.78,6.23,.11,.33,.25,.82,.41,1.42,.27,1.1,.41,1.64,.44,2.11,.04,.71-.23,1.37,.63,2.13Z"/><path class="v" d="M14.09,75.81c.35-.25,2.09-1.45,4.08-.94,.62,.14,1.19,.44,1.65,.87,1.2,1.17,1.06,2.9,1.03,3.23-.1,1.29-.68,1.62-1.31,3.22-.32,.82-.63,1.42-.75,2.35-.07,.46-.07,.93-.02,1.39,.19,1.6,1.1,2.13,.86,2.58-.43,.79-2.73,.27-5.48-.35-3.83-.87-4.56-1.58-4.94-2.17-.14-.21-.94-1.49-.4-2.58,.46-.92,1.62-1.15,1.78-1.18,1.19-.22,1.57,.55,2.69,.33,.46-.09,.89-.43,1.09-.56,.32-.22,.62-.46,.9-.73,1.26-1.16,1.45-1.53,2.19-1.93,.27-.14,.56-.25,.85-.32,.35-.11,.72-.13,1.09-.06,.18,.05,.36,.12,.52,.22,.59,.37,.87,1.39,.82,2.36-.07,1.35-.84,3.03-.67,3.42,.07,.17,.17,.33,.29,.48,0,0,.04,.05,.08,.09,.17,.17,.58,.44,.83,.37,.33-.09,.24-.72,.54-1.37,.22-.47,.55-.75,1.52-1.37,1.49-.95,1.83-1.01,2.84-1.65,1.44-.92,2.25-1.45,2.35-2.33,.1-.92-.65-1.64-.72-1.7-.96-.87-2.27-.48-2.34-.47-.81,.26-.7,.73-1.68,1.32-.27,.16-1.53,.87-2.92,.61-.64-.12-.7-.34-1.48-.44-.58-.06-1.16-.04-1.73,.07-.65,.07-1.29,.24-1.89,.49-.77,.35-1.54,.68-1.77,1.43-.08,.28,0,.63,.13,1.31,.15,.79,.32,.99,.39,1.06,.19,.2,.37,.23,.93,.39,0,0,1.08,.32,2.32,.85,.25,.1,.49,.21,.72,.33,.56,.3,.86,.59,1.6,1.22,.77,.65,1.15,.98,1.16,.97,.08-.07-.49-1.32-1.63-1.8-.13-.05-.62-.12-1.59-.26-1.07-.15-1.61-.22-1.74-.23-.58-.03-.83,0-1.18-.17-.14-.07-.6-.31-.68-.74-.04-.21,.13-.52,.47-1.14,.31-.56,.42-.67,.48-.72,.25-.21,.55-.35,.87-.39"/><path class="v" d="M32.7,79.54c.39,.94-.45,2.06-.93,2.71-.93,1.25-2,1.82-3.86,2.79-2.17,1.13-3.25,1.69-4.42,1.67-.98-.02-1.86-.31-2.38,.22-.43,.44-.09,.89-.46,1.49-.4,.65-1.21,.8-3.57,1.18-1.69,.27-2.54,.4-2.73,.43-3.31,.39-4.97,.58-5.65,.51-1.13-.12-4.19-.46-5.48-2.76-.87-1.53-.49-3.14-.44-3.33s.52-1.99,2.19-2.91c2.01-1.11,3.62,.27,5.13-.96,.58-.47,.35-.68,1.39-2.18,.89-1.28,1.93-2.77,2.61-2.6,1.09,.27,.08,4.39,1.8,5.27,.91,.46,1.53-.52,4.06-.63,1.94-.09,1.99,.47,3.35,.21,1.74-.33,1.79-1.28,4.12-2.02,1.53-.48,2.48-.38,2.84-.33,.61,.09,2.04,.3,2.44,1.25Z"/><path class="v" d="M24.77,94.85c-2.61-1.85-1.42-2.48-1.9-3.04-.44-.52-.92-.6-1.2-1.33-.32-.85,.07-1.42-.14-2.34-.12-.54-.46-1.24-1.43-1.89"/></g><g id="h" class="t"><path class="u" d="M120.27,33.71c-1.46,2.12-6.5,1.22-9.63-.25-.79-.37-4.72-2.23-4.5-4.47,.12-1.22,1.43-2.03,1.49-2.06,1.58-.94,2.67,.33,4.33-.41,1.43-.64,1.05-1.78,3.13-3.21,.78-.53,1.79-1.21,2.83-.91,.89,.26,1.35,1.1,1.67,1.71,0,0,.06,.1,.11,.21,.77,1.62,.6,4.85,.6,4.85-.02,.27-.03,.67-.03,1.15,0,.88,0,1.32,.07,1.68,.11,.54,.44,.99-.07,1.72Z"/><path class="u" d="M123.48,23.99c-.32-.12-1.85-.69-3.25,.07-.44,.22-.81,.56-1.07,.98-.68,1.11-.24,2.39-.16,2.64,.33,.95,.82,1.09,1.6,2.18,.4,.55,.75,.95,1.01,1.63,.14,.34,.23,.69,.28,1.05,.16,1.25-.42,1.82-.15,2.11,.48,.51,2.11-.32,4.06-1.32,2.73-1.39,3.13-2.07,3.31-2.58,.06-.18,.42-1.31-.19-2.02-.52-.61-1.44-.56-1.57-.55-.94,.06-1.08,.71-1.96,.77-.36,.02-.75-.15-.93-.21-.28-.1-.55-.23-.81-.38-1.17-.63-1.39-.88-2.02-1.03-.23-.06-.47-.08-.71-.08-.29-.02-.57,.04-.83,.17-.13,.07-.25,.16-.35,.27-.37,.39-.39,1.22-.17,1.94,.31,1,1.21,2.12,1.16,2.45-.03,.14-.07,.29-.14,.42,0,0-.02,.04-.04,.08-.1,.17-.35,.44-.55,.44-.27,0-.32-.5-.68-.93-.25-.31-.55-.46-1.41-.74-1.3-.43-1.57-.41-2.45-.7-1.25-.42-1.96-.67-2.21-1.31-.25-.68,.18-1.35,.22-1.42,.55-.85,1.63-.8,1.67-.8,.66,.04,.67,.42,1.52,.68,.23,.07,1.32,.37,2.32-.1,.46-.22,.46-.39,1.03-.62,.42-.16,.87-.25,1.32-.27,.5-.07,1.02-.07,1.52,0,.64,.11,1.29,.22,1.61,.74,.12,.19,.13,.46,.16,1,.04,.62-.05,.81-.09,.88-.11,.19-.24,.24-.63,.47-.55,.33-1.08,.7-1.59,1.08-.17,.12-.33,.24-.48,.38-.36,.34-.54,.61-.97,1.22-.45,.64-.68,.96-.69,.95-.08-.04,.12-1.09,.88-1.67,.09-.07,.44-.21,1.14-.5,.78-.32,1.17-.48,1.28-.51,.43-.14,.62-.16,.85-.36,.09-.08,.39-.35,.37-.69-.01-.17-.2-.37-.57-.77-.34-.36-.44-.42-.5-.45-.23-.12-.48-.16-.74-.14"/><path class="u" d="M110.17,30.37c-.12,.78,.73,1.47,1.22,1.86,.95,.76,1.86,.99,3.45,1.36,1.85,.44,2.77,.65,3.65,.41,.74-.2,1.34-.59,1.84-.29,.41,.25,.24,.65,.64,1.04,.43,.42,1.06,.37,2.92,.2,1.33-.12,1.99-.18,2.14-.2,2.57-.34,3.86-.52,4.36-.7,.83-.31,3.07-1.15,3.61-3.14,.21-.87,.11-1.79-.3-2.59-.07-.14-.78-1.4-2.2-1.77-1.73-.45-2.68,.9-4.05,.27-.53-.24-.39-.44-1.47-1.38-.92-.8-1.98-1.72-2.47-1.46-.77,.41,.78,3.33-.34,4.31-.6,.52-1.26-.09-3.18,.3-1.47,.31-1.41,.73-2.48,.8-1.37,.08-1.6-.62-3.5-.73-1.24-.07-1.94,.19-2.21,.3-.44,.18-1.48,.61-1.59,1.41Z"/><path class="u" d="M118.36,41.06c1.61-1.9,.6-2.14,.85-2.66,.23-.48,.58-.63,.65-1.23,.08-.71-.33-1.06-.34-1.79-.01-.43,.11-1.03,.71-1.7"/></g><g id="i" class="t"><path class="v" d="M89.85,19.76c2.49,2.17,8.49-.54,11.92-3.37,.87-.71,5.17-4.27,4.18-6.99-.54-1.49-2.43-2.07-2.52-2.09-2.26-.67-3.23,1.26-5.52,.87-1.99-.35-1.87-1.89-4.92-3-1.14-.42-2.61-.93-3.81-.24-1.02,.59-1.33,1.79-1.53,2.64,0,0-.04,.14-.07,.3-.44,2.26,.78,6.23,.78,6.23,.11,.33,.25,.82,.41,1.42,.27,1.1,.41,1.64,.44,2.11,.04,.71-.23,1.37,.63,2.13Z"/><path class="v" d="M82.77,8.67c.35-.25,2.09-1.45,4.08-.94,.62,.14,1.19,.44,1.65,.87,1.2,1.17,1.06,2.9,1.03,3.23-.1,1.29-.68,1.62-1.31,3.22-.32,.82-.63,1.42-.75,2.35-.07,.46-.07,.93-.02,1.39,.19,1.6,1.1,2.13,.86,2.58-.43,.79-2.73,.27-5.48-.35-3.83-.87-4.56-1.58-4.94-2.17-.14-.21-.94-1.49-.4-2.58,.46-.92,1.62-1.15,1.78-1.18,1.19-.22,1.57,.55,2.69,.33,.46-.09,.89-.43,1.09-.56,.32-.22,.62-.46,.9-.73,1.26-1.16,1.45-1.53,2.19-1.93,.27-.14,.56-.25,.85-.32,.35-.11,.72-.13,1.09-.06,.18,.05,.36,.12,.52,.22,.59,.37,.87,1.39,.82,2.36-.07,1.35-.84,3.03-.67,3.42,.07,.17,.17,.33,.29,.48,0,0,.04,.05,.08,.09,.17,.17,.58,.44,.83,.37,.33-.09,.24-.72,.54-1.37,.22-.47,.55-.75,1.52-1.37,1.49-.95,1.83-1.01,2.84-1.65,1.44-.92,2.25-1.45,2.35-2.33,.1-.92-.65-1.64-.72-1.7-.96-.87-2.27-.48-2.34-.47-.81,.26-.7,.73-1.68,1.32-.27,.16-1.53,.87-2.92,.61-.64-.12-.7-.34-1.48-.44-.58-.06-1.16-.04-1.73,.07-.65,.07-1.29,.24-1.89,.49-.77,.35-1.54,.68-1.77,1.43-.08,.28,0,.63,.13,1.31,.15,.79,.32,.99,.39,1.06,.19,.2,.37,.23,.93,.39,0,0,1.08,.32,2.32,.85,.25,.1,.49,.21,.72,.33,.56,.3,.86,.59,1.6,1.22,.77,.65,1.15,.98,1.16,.97,.08-.07-.49-1.32-1.63-1.8-.13-.05-.62-.12-1.59-.26-1.07-.15-1.61-.22-1.74-.23-.58-.03-.83,0-1.18-.17-.14-.07-.6-.31-.68-.74-.04-.21,.13-.52,.47-1.14,.31-.56,.42-.67,.48-.72,.25-.21,.55-.35,.87-.39"/><path class="v" d="M101.38,12.4c.39,.94-.45,2.06-.93,2.71-.93,1.25-2,1.82-3.86,2.79-2.17,1.13-3.25,1.69-4.42,1.67-.98-.02-1.86-.31-2.38,.22-.43,.44-.09,.89-.46,1.49-.4,.65-1.21,.8-3.57,1.18-1.69,.27-2.54,.4-2.73,.43-3.31,.39-4.97,.58-5.65,.51-1.13-.12-4.19-.46-5.48-2.76-.87-1.53-.49-3.14-.44-3.33s.52-1.99,2.19-2.91c2.01-1.11,3.62,.27,5.13-.96,.58-.47,.35-.68,1.39-2.18,.89-1.28,1.93-2.77,2.61-2.6,1.09,.27,.08,4.39,1.8,5.27,.91,.46,1.53-.52,4.06-.63,1.94-.09,1.99,.47,3.35,.21,1.74-.33,1.79-1.28,4.12-2.02,1.53-.48,2.48-.38,2.84-.33,.61,.09,2.04,.3,2.44,1.25Z"/><path class="v" d="M93.45,27.71c-2.61-1.85-1.42-2.48-1.9-3.04-.44-.52-.92-.6-1.2-1.33-.32-.85,.07-1.42-.14-2.34-.12-.54-.46-1.24-1.43-1.89"/></g><g id="j" class="t"><path class="u" d="M120.27,67.56c-1.46,2.12-6.5,1.22-9.63-.25-.79-.37-4.72-2.23-4.5-4.47,.12-1.22,1.43-2.03,1.49-2.06,1.58-.94,2.67,.33,4.33-.41,1.43-.64,1.05-1.78,3.13-3.21,.78-.53,1.79-1.21,2.83-.91,.89,.26,1.35,1.1,1.67,1.71,0,0,.06,.1,.11,.21,.77,1.62,.6,4.85,.6,4.85-.02,.27-.03,.67-.03,1.15,0,.88,0,1.32,.07,1.68,.11,.54,.44,.99-.07,1.72Z"/><path class="u" d="M123.48,57.84c-.32-.12-1.85-.69-3.25,.07-.44,.22-.81,.56-1.07,.98-.68,1.11-.24,2.39-.16,2.64,.33,.95,.82,1.09,1.6,2.18,.4,.55,.75,.95,1.01,1.63,.14,.34,.23,.69,.28,1.05,.16,1.25-.42,1.82-.15,2.11,.48,.51,2.11-.32,4.06-1.32,2.73-1.39,3.13-2.07,3.31-2.58,.06-.18,.42-1.31-.19-2.02-.52-.61-1.44-.56-1.57-.55-.94,.06-1.08,.71-1.96,.77-.36,.02-.75-.15-.93-.21-.28-.1-.55-.23-.81-.38-1.17-.63-1.39-.88-2.02-1.03-.23-.06-.47-.08-.71-.08-.29-.02-.57,.04-.83,.17-.13,.07-.25,.16-.35,.27-.37,.39-.39,1.22-.17,1.94,.31,1,1.21,2.12,1.16,2.45-.03,.14-.07,.29-.14,.42,0,0-.02,.04-.04,.08-.1,.17-.35,.44-.55,.44-.27,0-.32-.5-.68-.93-.25-.31-.55-.46-1.41-.74-1.3-.43-1.57-.41-2.45-.7-1.25-.42-1.96-.67-2.21-1.31-.25-.68,.18-1.35,.22-1.42,.55-.85,1.63-.8,1.67-.8,.66,.04,.67,.42,1.52,.68,.23,.07,1.32,.37,2.32-.1,.46-.22,.46-.39,1.03-.62,.42-.16,.87-.25,1.32-.27,.5-.07,1.02-.07,1.52,0,.64,.11,1.29,.22,1.61,.74,.12,.19,.13,.46,.16,1,.04,.62-.05,.81-.09,.88-.11,.19-.24,.24-.63,.47-.55,.33-1.08,.7-1.59,1.08-.17,.12-.33,.24-.48,.38-.36,.34-.54,.61-.97,1.22-.45,.64-.68,.96-.69,.95-.08-.04,.12-1.09,.88-1.67,.09-.07,.44-.21,1.14-.5,.78-.32,1.17-.48,1.28-.51,.43-.14,.62-.16,.85-.36,.09-.08,.39-.35,.37-.69-.01-.17-.2-.37-.57-.77-.34-.36-.44-.42-.5-.45-.23-.12-.48-.16-.74-.14"/><path class="u" d="M110.17,64.23c-.12,.78,.73,1.47,1.22,1.86,.95,.76,1.86,.99,3.45,1.36,1.85,.44,2.77,.65,3.65,.41,.74-.2,1.34-.59,1.84-.29,.41,.25,.24,.65,.64,1.04,.43,.42,1.06,.37,2.92,.2,1.33-.12,1.99-.18,2.14-.2,2.57-.34,3.86-.52,4.36-.7,.83-.31,3.07-1.15,3.61-3.14,.21-.87,.11-1.79-.3-2.59-.07-.14-.78-1.4-2.2-1.77-1.73-.45-2.68,.9-4.05,.27-.53-.24-.39-.44-1.47-1.38-.92-.8-1.98-1.72-2.47-1.46-.77,.41,.78,3.33-.34,4.31-.6,.52-1.26-.09-3.18,.3-1.47,.31-1.41,.73-2.48,.8-1.37,.08-1.6-.62-3.5-.73-1.24-.07-1.94,.19-2.21,.3-.44,.18-1.48,.61-1.59,1.41Z"/><path class="u" d="M118.36,74.91c1.61-1.9,.6-2.14,.85-2.66,.23-.48,.58-.63,.65-1.23,.08-.71-.33-1.06-.34-1.79-.01-.43,.11-1.03,.71-1.7"/></g><g id="k" class="t"><path class="v" d="M89.85,53.61c2.49,2.17,8.49-.54,11.92-3.37,.87-.71,5.17-4.27,4.18-6.99-.54-1.49-2.43-2.07-2.52-2.09-2.26-.67-3.23,1.26-5.52,.87-1.99-.35-1.87-1.89-4.92-3-1.14-.42-2.61-.93-3.81-.24-1.02,.59-1.33,1.79-1.53,2.64,0,0-.04,.14-.07,.3-.44,2.26,.78,6.23,.78,6.23,.11,.33,.25,.82,.41,1.42,.27,1.1,.41,1.64,.44,2.11,.04,.71-.23,1.37,.63,2.13Z"/><path class="v" d="M82.77,42.52c.35-.25,2.09-1.45,4.08-.94,.62,.14,1.19,.44,1.65,.87,1.2,1.17,1.06,2.9,1.03,3.23-.1,1.29-.68,1.62-1.31,3.22-.32,.82-.63,1.42-.75,2.35-.07,.46-.07,.93-.02,1.39,.19,1.6,1.1,2.13,.86,2.58-.43,.79-2.73,.27-5.48-.35-3.83-.87-4.56-1.58-4.94-2.17-.14-.21-.94-1.49-.4-2.58,.46-.92,1.62-1.15,1.78-1.18,1.19-.22,1.57,.55,2.69,.33,.46-.09,.89-.43,1.09-.56,.32-.22,.62-.46,.9-.73,1.26-1.16,1.45-1.53,2.19-1.93,.27-.14,.56-.25,.85-.32,.35-.11,.72-.13,1.09-.06,.18,.05,.36,.12,.52,.22,.59,.37,.87,1.39,.82,2.36-.07,1.35-.84,3.03-.67,3.42,.07,.17,.17,.33,.29,.48,0,0,.04,.05,.08,.09,.17,.17,.58,.44,.83,.37,.33-.09,.24-.72,.54-1.37,.22-.47,.55-.75,1.52-1.37,1.49-.95,1.83-1.01,2.84-1.65,1.44-.92,2.25-1.45,2.35-2.33,.1-.92-.65-1.64-.72-1.7-.96-.87-2.27-.48-2.34-.47-.81,.26-.7,.73-1.68,1.32-.27,.16-1.53,.87-2.92,.61-.64-.12-.7-.34-1.48-.44-.58-.06-1.16-.04-1.73,.07-.65,.07-1.29,.24-1.89,.49-.77,.35-1.54,.68-1.77,1.43-.08,.28,0,.63,.13,1.31,.15,.79,.32,.99,.39,1.06,.19,.2,.37,.23,.93,.39,0,0,1.08,.32,2.32,.85,.25,.1,.49,.21,.72,.33,.56,.3,.86,.59,1.6,1.22,.77,.65,1.15,.98,1.16,.97,.08-.07-.49-1.32-1.63-1.8-.13-.05-.62-.12-1.59-.26-1.07-.15-1.61-.22-1.74-.23-.58-.03-.83,0-1.18-.17-.14-.07-.6-.31-.68-.74-.04-.21,.13-.52,.47-1.14,.31-.56,.42-.67,.48-.72,.25-.21,.55-.35,.87-.39"/><path class="v" d="M101.38,46.26c.39,.94-.45,2.06-.93,2.71-.93,1.25-2,1.82-3.86,2.79-2.17,1.13-3.25,1.69-4.42,1.67-.98-.02-1.86-.31-2.38,.22-.43,.44-.09,.89-.46,1.49-.4,.65-1.21,.8-3.57,1.18-1.69,.27-2.54,.4-2.73,.43-3.31,.39-4.97,.58-5.65,.51-1.13-.12-4.19-.46-5.48-2.76-.87-1.53-.49-3.14-.44-3.33s.52-1.99,2.19-2.91c2.01-1.11,3.62,.27,5.13-.96,.58-.47,.35-.68,1.39-2.18,.89-1.28,1.93-2.77,2.61-2.6,1.09,.27,.08,4.39,1.8,5.27,.91,.46,1.53-.52,4.06-.63,1.94-.09,1.99,.47,3.35,.21,1.74-.33,1.79-1.28,4.12-2.02,1.53-.48,2.48-.38,2.84-.33,.61,.09,2.04,.3,2.44,1.25Z"/><path class="v" d="M93.45,61.57c-2.61-1.85-1.42-2.48-1.9-3.04-.44-.52-.92-.6-1.2-1.33-.32-.85,.07-1.42-.14-2.34-.12-.54-.46-1.24-1.43-1.89"/></g><g id="l" class="t"><path class="u" d="M120.02,101.42c-1.46,2.12-6.5,1.22-9.63-.25-.79-.37-4.72-2.23-4.5-4.47,.12-1.22,1.43-2.03,1.49-2.06,1.58-.94,2.67,.33,4.33-.41,1.43-.64,1.05-1.78,3.13-3.21,.78-.53,1.79-1.21,2.83-.91,.89,.26,1.35,1.1,1.67,1.71,0,0,.06,.1,.11,.21,.77,1.62,.6,4.85,.6,4.85-.02,.27-.03,.67-.03,1.15,0,.88,0,1.32,.07,1.68,.11,.54,.44,.99-.07,1.72Z"/><path class="u" d="M123.23,91.7c-.32-.12-1.85-.69-3.25,.07-.44,.22-.81,.56-1.07,.98-.68,1.11-.24,2.39-.16,2.64,.33,.95,.82,1.09,1.6,2.18,.4,.55,.75,.95,1.01,1.63,.14,.34,.23,.69,.28,1.05,.16,1.25-.42,1.82-.15,2.11,.48,.51,2.11-.32,4.06-1.32,2.73-1.39,3.13-2.07,3.31-2.58,.06-.18,.42-1.31-.19-2.02-.52-.61-1.44-.56-1.57-.55-.94,.06-1.08,.71-1.96,.77-.36,.02-.75-.15-.93-.21-.28-.1-.55-.23-.81-.38-1.17-.63-1.39-.88-2.02-1.03-.23-.06-.47-.08-.71-.08-.29-.02-.57,.04-.83,.17-.13,.07-.25,.16-.35,.27-.37,.39-.39,1.22-.17,1.94,.31,1,1.21,2.12,1.16,2.45-.03,.14-.07,.29-.14,.42,0,0-.02,.04-.04,.08-.1,.17-.35,.44-.55,.44-.27,0-.32-.5-.68-.93-.25-.31-.55-.46-1.41-.74-1.3-.43-1.57-.41-2.45-.7-1.25-.42-1.96-.67-2.21-1.31-.25-.68,.18-1.35,.22-1.42,.55-.85,1.63-.8,1.67-.8,.66,.04,.67,.42,1.52,.68,.23,.07,1.32,.37,2.32-.1,.46-.22,.46-.39,1.03-.62,.42-.16,.87-.25,1.32-.27,.5-.07,1.02-.07,1.52,0,.64,.11,1.29,.22,1.61,.74,.12,.19,.13,.46,.16,1,.04,.62-.05,.81-.09,.88-.11,.19-.24,.24-.63,.47-.55,.33-1.08,.7-1.59,1.08-.17,.12-.33,.24-.48,.38-.36,.34-.54,.61-.97,1.22-.45,.64-.68,.96-.69,.95-.08-.04,.12-1.09,.88-1.67,.09-.07,.44-.21,1.14-.5,.78-.32,1.17-.48,1.28-.51,.43-.14,.62-.16,.85-.36,.09-.08,.39-.35,.37-.69-.01-.17-.2-.37-.57-.77-.34-.36-.44-.42-.5-.45-.23-.12-.48-.16-.74-.14"/><path class="u" d="M109.92,98.08c-.12,.78,.73,1.47,1.22,1.86,.95,.76,1.86,.99,3.45,1.36,1.85,.44,2.77,.65,3.65,.41,.74-.2,1.34-.59,1.84-.29,.41,.25,.24,.65,.64,1.04,.43,.42,1.06,.37,2.92,.2,1.33-.12,1.99-.18,2.14-.2,2.57-.34,3.86-.52,4.36-.7,.83-.31,3.07-1.15,3.61-3.14,.21-.87,.11-1.79-.3-2.59-.07-.14-.78-1.4-2.2-1.77-1.73-.45-2.68,.9-4.05,.27-.53-.24-.39-.44-1.47-1.38-.92-.8-1.98-1.72-2.47-1.46-.77,.41,.78,3.33-.34,4.31-.6,.52-1.26-.09-3.18,.3-1.47,.31-1.41,.73-2.48,.8-1.37,.08-1.6-.62-3.5-.73-1.24-.07-1.94,.19-2.21,.3-.44,.18-1.48,.61-1.59,1.41Z"/><path class="u" d="M118.11,108.77c1.61-1.9,.6-2.14,.85-2.66,.23-.48,.58-.63,.65-1.23,.08-.71-.33-1.06-.34-1.79-.01-.43,.11-1.03,.71-1.7"/></g><g id="m" class="t"><path class="v" d="M89.6,87.47c2.49,2.17,8.49-.54,11.92-3.37,.87-.71,5.17-4.27,4.18-6.99-.54-1.49-2.43-2.07-2.52-2.09-2.26-.67-3.23,1.26-5.52,.87-1.99-.35-1.87-1.89-4.92-3-1.14-.42-2.61-.93-3.81-.24-1.02,.59-1.33,1.79-1.53,2.64,0,0-.04,.14-.07,.3-.44,2.26,.78,6.23,.78,6.23,.11,.33,.25,.82,.41,1.42,.27,1.1,.41,1.64,.44,2.11,.04,.71-.23,1.37,.63,2.13Z"/><path class="v" d="M82.52,76.38c.35-.25,2.09-1.45,4.08-.94,.62,.14,1.19,.44,1.65,.87,1.2,1.17,1.06,2.9,1.03,3.23-.1,1.29-.68,1.62-1.31,3.22-.32,.82-.63,1.42-.75,2.35-.07,.46-.07,.93-.02,1.39,.19,1.6,1.1,2.13,.86,2.58-.43,.79-2.73,.27-5.48-.35-3.83-.87-4.56-1.58-4.94-2.17-.14-.21-.94-1.49-.4-2.58,.46-.92,1.62-1.15,1.78-1.18,1.19-.22,1.57,.55,2.69,.33,.46-.09,.89-.43,1.09-.56,.32-.22,.62-.46,.9-.73,1.26-1.16,1.45-1.53,2.19-1.93,.27-.14,.56-.25,.85-.32,.35-.11,.72-.13,1.09-.06,.18,.05,.36,.12,.52,.22,.59,.37,.87,1.39,.82,2.36-.07,1.35-.84,3.03-.67,3.42,.07,.17,.17,.33,.29,.48,0,0,.04,.05,.08,.09,.17,.17,.58,.44,.83,.37,.33-.09,.24-.72,.54-1.37,.22-.47,.55-.75,1.52-1.37,1.49-.95,1.83-1.01,2.84-1.65,1.44-.92,2.25-1.45,2.35-2.33,.1-.92-.65-1.64-.72-1.7-.96-.87-2.27-.48-2.34-.47-.81,.26-.7,.73-1.68,1.32-.27,.16-1.53,.87-2.92,.61-.64-.12-.7-.34-1.48-.44-.58-.06-1.16-.04-1.73,.07-.65,.07-1.29,.24-1.89,.49-.77,.35-1.54,.68-1.77,1.43-.08,.28,0,.63,.13,1.31,.15,.79,.32,.99,.39,1.06,.19,.2,.37,.23,.93,.39,0,0,1.08,.32,2.32,.85,.25,.1,.49,.21,.72,.33,.56,.3,.86,.59,1.6,1.22,.77,.65,1.15,.98,1.16,.97,.08-.07-.49-1.32-1.63-1.8-.13-.05-.62-.12-1.59-.26-1.07-.15-1.61-.22-1.74-.23-.58-.03-.83,0-1.18-.17-.14-.07-.6-.31-.68-.74-.04-.21,.13-.52,.47-1.14,.31-.56,.42-.67,.48-.72,.25-.21,.55-.35,.87-.39"/><path class="v" d="M101.13,80.11c.39,.94-.45,2.06-.93,2.71-.93,1.25-2,1.82-3.86,2.79-2.17,1.13-3.25,1.69-4.42,1.67-.98-.02-1.86-.31-2.38,.22-.43,.44-.09,.89-.46,1.49-.4,.65-1.21,.8-3.57,1.18-1.69,.27-2.54,.4-2.73,.43-3.31,.39-4.97,.58-5.65,.51-1.13-.12-4.19-.46-5.48-2.76-.87-1.53-.49-3.14-.44-3.33s.52-1.99,2.19-2.91c2.01-1.11,3.62,.27,5.13-.96,.58-.47,.35-.68,1.39-2.18,.89-1.28,1.93-2.77,2.61-2.6,1.09,.27,.08,4.39,1.8,5.27,.91,.46,1.53-.52,4.06-.63,1.94-.09,1.99,.47,3.35,.21,1.74-.33,1.79-1.28,4.12-2.02,1.53-.48,2.48-.38,2.84-.33,.61,.09,2.04,.3,2.44,1.25Z"/><path class="v" d="M93.2,95.42c-2.61-1.85-1.42-2.48-1.9-3.04-.44-.52-.92-.6-1.2-1.33-.32-.85,.07-1.42-.14-2.34-.12-.54-.46-1.24-1.43-1.89"/></g><g id="n" class="t"><path class="u" d="M188.95,33.97c-1.46,2.12-6.5,1.22-9.63-.25-.79-.37-4.72-2.23-4.5-4.47,.12-1.22,1.43-2.03,1.49-2.06,1.58-.94,2.67,.33,4.33-.41,1.43-.64,1.05-1.78,3.13-3.21,.78-.53,1.79-1.21,2.83-.91,.89,.26,1.35,1.1,1.67,1.71,0,0,.06,.1,.11,.21,.77,1.62,.6,4.85,.6,4.85-.02,.27-.03,.67-.03,1.15,0,.88,0,1.32,.07,1.68,.11,.54,.44,.99-.07,1.72Z"/><path class="u" d="M192.16,24.25c-.32-.12-1.85-.69-3.25,.07-.44,.22-.81,.56-1.07,.98-.68,1.11-.24,2.39-.16,2.64,.33,.95,.82,1.09,1.6,2.18,.4,.55,.75,.95,1.01,1.63,.14,.34,.23,.69,.28,1.05,.16,1.25-.42,1.82-.15,2.11,.48,.51,2.11-.32,4.06-1.32,2.73-1.39,3.13-2.07,3.31-2.58,.06-.18,.42-1.31-.19-2.02-.52-.61-1.44-.56-1.57-.55-.94,.06-1.08,.71-1.96,.77-.36,.02-.75-.15-.93-.21-.28-.1-.55-.23-.81-.38-1.17-.63-1.39-.88-2.02-1.03-.23-.06-.47-.08-.71-.08-.29-.02-.57,.04-.83,.17-.13,.07-.25,.16-.35,.27-.37,.39-.39,1.22-.17,1.94,.31,1,1.21,2.12,1.16,2.45-.03,.14-.07,.29-.14,.42,0,0-.02,.04-.04,.08-.1,.17-.35,.44-.55,.44-.27,0-.32-.5-.68-.93-.25-.31-.55-.46-1.41-.74-1.3-.43-1.57-.41-2.45-.7-1.25-.42-1.96-.67-2.21-1.31-.25-.68,.18-1.35,.22-1.42,.55-.85,1.63-.8,1.67-.8,.66,.04,.67,.42,1.52,.68,.23,.07,1.32,.37,2.32-.1,.46-.22,.46-.39,1.03-.62,.42-.16,.87-.25,1.32-.27,.5-.07,1.02-.07,1.52,0,.64,.11,1.29,.22,1.61,.74,.12,.19,.13,.46,.16,1,.04,.62-.05,.81-.09,.88-.11,.19-.24,.24-.63,.47-.55,.33-1.08,.7-1.59,1.08-.17,.12-.33,.24-.48,.38-.36,.34-.54,.61-.97,1.22-.45,.64-.68,.96-.69,.95-.08-.04,.12-1.09,.88-1.67,.09-.07,.44-.21,1.14-.5,.78-.32,1.17-.48,1.28-.51,.43-.14,.62-.16,.85-.36,.09-.08,.39-.35,.37-.69-.01-.17-.2-.37-.57-.77-.34-.36-.44-.42-.5-.45-.23-.12-.48-.16-.74-.14"/><path class="u" d="M178.85,30.64c-.12,.78,.73,1.47,1.22,1.86,.95,.76,1.86,.99,3.45,1.36,1.85,.44,2.77,.65,3.65,.41,.74-.2,1.34-.59,1.84-.29,.41,.25,.24,.65,.64,1.04,.43,.42,1.06,.37,2.92,.2,1.33-.12,1.99-.18,2.14-.2,2.57-.34,3.86-.52,4.36-.7,.83-.31,3.07-1.15,3.61-3.14,.21-.87,.11-1.79-.3-2.59-.07-.14-.78-1.4-2.2-1.77-1.73-.45-2.68,.9-4.05,.27-.53-.24-.39-.44-1.47-1.38-.92-.8-1.98-1.72-2.47-1.46-.77,.41,.78,3.33-.34,4.31-.6,.52-1.26-.09-3.18,.3-1.47,.31-1.41,.73-2.48,.8-1.37,.08-1.6-.62-3.5-.73-1.24-.07-1.94,.19-2.21,.3-.44,.18-1.48,.61-1.59,1.41Z"/><path class="u" d="M187.04,41.32c1.61-1.9,.6-2.14,.85-2.66,.23-.48,.58-.63,.65-1.23,.08-.71-.33-1.06-.34-1.79-.01-.43,.11-1.03,.71-1.7"/></g><g id="o" class="t"><path class="v" d="M158.53,20.02c2.49,2.17,8.49-.54,11.92-3.37,.87-.71,5.17-4.27,4.18-6.99-.54-1.49-2.43-2.07-2.52-2.09-2.26-.67-3.23,1.26-5.52,.87-1.99-.35-1.87-1.89-4.92-3-1.14-.42-2.61-.93-3.81-.24-1.02,.59-1.33,1.79-1.53,2.64,0,0-.04,.14-.07,.3-.44,2.26,.78,6.23,.78,6.23,.11,.33,.25,.82,.41,1.42,.27,1.1,.41,1.64,.44,2.11,.04,.71-.23,1.37,.63,2.13Z"/><path class="v" d="M151.45,8.93c.35-.25,2.09-1.45,4.08-.94,.62,.14,1.19,.44,1.65,.87,1.2,1.17,1.06,2.9,1.03,3.23-.1,1.29-.68,1.62-1.31,3.22-.32,.82-.63,1.42-.75,2.35-.07,.46-.07,.93-.02,1.39,.19,1.6,1.1,2.13,.86,2.58-.43,.79-2.73,.27-5.48-.35-3.83-.87-4.56-1.58-4.94-2.17-.14-.21-.94-1.49-.4-2.58,.46-.92,1.62-1.15,1.78-1.18,1.19-.22,1.57,.55,2.69,.33,.46-.09,.89-.43,1.09-.56,.32-.22,.62-.46,.9-.73,1.26-1.16,1.45-1.53,2.19-1.93,.27-.14,.56-.25,.85-.32,.35-.11,.72-.13,1.09-.06,.18,.05,.36,.12,.52,.22,.59,.37,.87,1.39,.82,2.36-.07,1.35-.84,3.03-.67,3.42,.07,.17,.17,.33,.29,.48,0,0,.04,.05,.08,.09,.17,.17,.58,.44,.83,.37,.33-.09,.24-.72,.54-1.37,.22-.47,.55-.75,1.52-1.37,1.49-.95,1.83-1.01,2.84-1.65,1.44-.92,2.25-1.45,2.35-2.33,.1-.92-.65-1.64-.72-1.7-.96-.87-2.27-.48-2.34-.47-.81,.26-.7,.73-1.68,1.32-.27,.16-1.53,.87-2.92,.61-.64-.12-.7-.34-1.48-.44-.58-.06-1.16-.04-1.73,.07-.65,.07-1.29,.24-1.89,.49-.77,.35-1.54,.68-1.77,1.43-.08,.28,0,.63,.13,1.31,.15,.79,.32,.99,.39,1.06,.19,.2,.37,.23,.93,.39,0,0,1.08,.32,2.32,.85,.25,.1,.49,.21,.72,.33,.56,.3,.86,.59,1.6,1.22,.77,.65,1.15,.98,1.16,.97,.08-.07-.49-1.32-1.63-1.8-.13-.05-.62-.12-1.59-.26-1.07-.15-1.61-.22-1.74-.23-.58-.03-.83,0-1.18-.17-.14-.07-.6-.31-.68-.74-.04-.21,.13-.52,.47-1.14,.31-.56,.42-.67,.48-.72,.25-.21,.55-.35,.87-.39"/><path class="v" d="M170.06,12.66c.39,.94-.45,2.06-.93,2.71-.93,1.25-2,1.82-3.86,2.79-2.17,1.13-3.25,1.69-4.42,1.67-.98-.02-1.86-.31-2.38,.22-.43,.44-.09,.89-.46,1.49-.4,.65-1.21,.8-3.57,1.18-1.69,.27-2.54,.4-2.73,.43-3.31,.39-4.97,.58-5.65,.51-1.13-.12-4.19-.46-5.48-2.76-.87-1.53-.49-3.14-.44-3.33s.52-1.99,2.19-2.91c2.01-1.11,3.62,.27,5.13-.96,.58-.47,.35-.68,1.39-2.18,.89-1.28,1.93-2.77,2.61-2.6,1.09,.27,.08,4.39,1.8,5.27,.91,.46,1.53-.52,4.06-.63,1.94-.09,1.99,.47,3.35,.21,1.74-.33,1.79-1.28,4.12-2.02,1.53-.48,2.48-.38,2.84-.33,.61,.09,2.04,.3,2.44,1.25Z"/><path class="v" d="M162.12,27.98c-2.61-1.85-1.42-2.48-1.9-3.04-.44-.52-.92-.6-1.2-1.33-.32-.85,.07-1.42-.14-2.34-.12-.54-.46-1.24-1.43-1.89"/></g><g id="p" class="t"><path class="u" d="M188.95,67.83c-1.46,2.12-6.5,1.22-9.63-.25-.79-.37-4.72-2.23-4.5-4.47,.12-1.22,1.43-2.03,1.49-2.06,1.58-.94,2.67,.33,4.33-.41,1.43-.64,1.05-1.78,3.13-3.21,.78-.53,1.79-1.21,2.83-.91,.89,.26,1.35,1.1,1.67,1.71,0,0,.06,.1,.11,.21,.77,1.62,.6,4.85,.6,4.85-.02,.27-.03,.67-.03,1.15,0,.88,0,1.32,.07,1.68,.11,.54,.44,.99-.07,1.72Z"/><path class="u" d="M192.16,58.11c-.32-.12-1.85-.69-3.25,.07-.44,.22-.81,.56-1.07,.98-.68,1.11-.24,2.39-.16,2.64,.33,.95,.82,1.09,1.6,2.18,.4,.55,.75,.95,1.01,1.63,.14,.34,.23,.69,.28,1.05,.16,1.25-.42,1.82-.15,2.11,.48,.51,2.11-.32,4.06-1.32,2.73-1.39,3.13-2.07,3.31-2.58,.06-.18,.42-1.31-.19-2.02-.52-.61-1.44-.56-1.57-.55-.94,.06-1.08,.71-1.96,.77-.36,.02-.75-.15-.93-.21-.28-.1-.55-.23-.81-.38-1.17-.63-1.39-.88-2.02-1.03-.23-.06-.47-.08-.71-.08-.29-.02-.57,.04-.83,.17-.13,.07-.25,.16-.35,.27-.37,.39-.39,1.22-.17,1.94,.31,1,1.21,2.12,1.16,2.45-.03,.14-.07,.29-.14,.42,0,0-.02,.04-.04,.08-.1,.17-.35,.44-.55,.44-.27,0-.32-.5-.68-.93-.25-.31-.55-.46-1.41-.74-1.3-.43-1.57-.41-2.45-.7-1.25-.42-1.96-.67-2.21-1.31-.25-.68,.18-1.35,.22-1.42,.55-.85,1.63-.8,1.67-.8,.66,.04,.67,.42,1.52,.68,.23,.07,1.32,.37,2.32-.1,.46-.22,.46-.39,1.03-.62,.42-.16,.87-.25,1.32-.27,.5-.07,1.02-.07,1.52,0,.64,.11,1.29,.22,1.61,.74,.12,.19,.13,.46,.16,1,.04,.62-.05,.81-.09,.88-.11,.19-.24,.24-.63,.47-.55,.33-1.08,.7-1.59,1.08-.17,.12-.33,.24-.48,.38-.36,.34-.54,.61-.97,1.22-.45,.64-.68,.96-.69,.95-.08-.04,.12-1.09,.88-1.67,.09-.07,.44-.21,1.14-.5,.78-.32,1.17-.48,1.28-.51,.43-.14,.62-.16,.85-.36,.09-.08,.39-.35,.37-.69-.01-.17-.2-.37-.57-.77-.34-.36-.44-.42-.5-.45-.23-.12-.48-.16-.74-.14"/><path class="u" d="M178.85,64.49c-.12,.78,.73,1.47,1.22,1.86,.95,.76,1.86,.99,3.45,1.36,1.85,.44,2.77,.65,3.65,.41,.74-.2,1.34-.59,1.84-.29,.41,.25,.24,.65,.64,1.04,.43,.42,1.06,.37,2.92,.2,1.33-.12,1.99-.18,2.14-.2,2.57-.34,3.86-.52,4.36-.7,.83-.31,3.07-1.15,3.61-3.14,.21-.87,.11-1.79-.3-2.59-.07-.14-.78-1.4-2.2-1.77-1.73-.45-2.68,.9-4.05,.27-.53-.24-.39-.44-1.47-1.38-.92-.8-1.98-1.72-2.47-1.46-.77,.41,.78,3.33-.34,4.31-.6,.52-1.26-.09-3.18,.3-1.47,.31-1.41,.73-2.48,.8-1.37,.08-1.6-.62-3.5-.73-1.24-.07-1.94,.19-2.21,.3-.44,.18-1.48,.61-1.59,1.41Z"/><path class="u" d="M187.04,75.18c1.61-1.9,.6-2.14,.85-2.66,.23-.48,.58-.63,.65-1.23,.08-.71-.33-1.06-.34-1.79-.01-.43,.11-1.03,.71-1.7"/></g><g id="q" class="t"><path class="v" d="M158.53,53.88c2.49,2.17,8.49-.54,11.92-3.37,.87-.71,5.17-4.27,4.18-6.99-.54-1.49-2.43-2.07-2.52-2.09-2.26-.67-3.23,1.26-5.52,.87-1.99-.35-1.87-1.89-4.92-3-1.14-.42-2.61-.93-3.81-.24-1.02,.59-1.33,1.79-1.53,2.64,0,0-.04,.14-.07,.3-.44,2.26,.78,6.23,.78,6.23,.11,.33,.25,.82,.41,1.42,.27,1.1,.41,1.64,.44,2.11,.04,.71-.23,1.37,.63,2.13Z"/><path class="v" d="M151.45,42.79c.35-.25,2.09-1.45,4.08-.94,.62,.14,1.19,.44,1.65,.87,1.2,1.17,1.06,2.9,1.03,3.23-.1,1.29-.68,1.62-1.31,3.22-.32,.82-.63,1.42-.75,2.35-.07,.46-.07,.93-.02,1.39,.19,1.6,1.1,2.13,.86,2.58-.43,.79-2.73,.27-5.48-.35-3.83-.87-4.56-1.58-4.94-2.17-.14-.21-.94-1.49-.4-2.58,.46-.92,1.62-1.15,1.78-1.18,1.19-.22,1.57,.55,2.69,.33,.46-.09,.89-.43,1.09-.56,.32-.22,.62-.46,.9-.73,1.26-1.16,1.45-1.53,2.19-1.93,.27-.14,.56-.25,.85-.32,.35-.11,.72-.13,1.09-.06,.18,.05,.36,.12,.52,.22,.59,.37,.87,1.39,.82,2.36-.07,1.35-.84,3.03-.67,3.42,.07,.17,.17,.33,.29,.48,0,0,.04,.05,.08,.09,.17,.17,.58,.44,.83,.37,.33-.09,.24-.72,.54-1.37,.22-.47,.55-.75,1.52-1.37,1.49-.95,1.83-1.01,2.84-1.65,1.44-.92,2.25-1.45,2.35-2.33,.1-.92-.65-1.64-.72-1.7-.96-.87-2.27-.48-2.34-.47-.81,.26-.7,.73-1.68,1.32-.27,.16-1.53,.87-2.92,.61-.64-.12-.7-.34-1.48-.44-.58-.06-1.16-.04-1.73,.07-.65,.07-1.29,.24-1.89,.49-.77,.35-1.54,.68-1.77,1.43-.08,.28,0,.63,.13,1.31,.15,.79,.32,.99,.39,1.06,.19,.2,.37,.23,.93,.39,0,0,1.08,.32,2.32,.85,.25,.1,.49,.21,.72,.33,.56,.3,.86,.59,1.6,1.22,.77,.65,1.15,.98,1.16,.97,.08-.07-.49-1.32-1.63-1.8-.13-.05-.62-.12-1.59-.26-1.07-.15-1.61-.22-1.74-.23-.58-.03-.83,0-1.18-.17-.14-.07-.6-.31-.68-.74-.04-.21,.13-.52,.47-1.14,.31-.56,.42-.67,.48-.72,.25-.21,.55-.35,.87-.39"/><path class="v" d="M170.06,46.52c.39,.94-.45,2.06-.93,2.71-.93,1.25-2,1.82-3.86,2.79-2.17,1.13-3.25,1.69-4.42,1.67-.98-.02-1.86-.31-2.38,.22-.43,.44-.09,.89-.46,1.49-.4,.65-1.21,.8-3.57,1.18-1.69,.27-2.54,.4-2.73,.43-3.31,.39-4.97,.58-5.65,.51-1.13-.12-4.19-.46-5.48-2.76-.87-1.53-.49-3.14-.44-3.33s.52-1.99,2.19-2.91c2.01-1.11,3.62,.27,5.13-.96,.58-.47,.35-.68,1.39-2.18,.89-1.28,1.93-2.77,2.61-2.6,1.09,.27,.08,4.39,1.8,5.27,.91,.46,1.53-.52,4.06-.63,1.94-.09,1.99,.47,3.35,.21,1.74-.33,1.79-1.28,4.12-2.02,1.53-.48,2.48-.38,2.84-.33,.61,.09,2.04,.3,2.44,1.25Z"/><path class="v" d="M162.12,61.83c-2.61-1.85-1.42-2.48-1.9-3.04-.44-.52-.92-.6-1.2-1.33-.32-.85,.07-1.42-.14-2.34-.12-.54-.46-1.24-1.43-1.89"/></g><g id="r" class="t"><path class="u" d="M188.7,101.69c-1.46,2.12-6.5,1.22-9.63-.25-.79-.37-4.72-2.23-4.5-4.47,.12-1.22,1.43-2.03,1.49-2.06,1.58-.94,2.67,.33,4.33-.41,1.43-.64,1.05-1.78,3.13-3.21,.78-.53,1.79-1.21,2.83-.91,.89,.26,1.35,1.1,1.67,1.71,0,0,.06,.1,.11,.21,.77,1.62,.6,4.85,.6,4.85-.02,.27-.03,.67-.03,1.15,0,.88,0,1.32,.07,1.68,.11,.54,.44,.99-.07,1.72Z"/><path class="u" d="M191.91,91.97c-.32-.12-1.85-.69-3.25,.07-.44,.22-.81,.56-1.07,.98-.68,1.11-.24,2.39-.16,2.64,.33,.95,.82,1.09,1.6,2.18,.4,.55,.75,.95,1.01,1.63,.14,.34,.23,.69,.28,1.05,.16,1.25-.42,1.82-.15,2.11,.48,.51,2.11-.32,4.06-1.32,2.73-1.39,3.13-2.07,3.31-2.58,.06-.18,.42-1.31-.19-2.02-.52-.61-1.44-.56-1.57-.55-.94,.06-1.08,.71-1.96,.77-.36,.02-.75-.15-.93-.21-.28-.1-.55-.23-.81-.38-1.17-.63-1.39-.88-2.02-1.03-.23-.06-.47-.08-.71-.08-.29-.02-.57,.04-.83,.17-.13,.07-.25,.16-.35,.27-.37,.39-.39,1.22-.17,1.94,.31,1,1.21,2.12,1.16,2.45-.03,.14-.07,.29-.14,.42,0,0-.02,.04-.04,.08-.1,.17-.35,.44-.55,.44-.27,0-.32-.5-.68-.93-.25-.31-.55-.46-1.41-.74-1.3-.43-1.57-.41-2.45-.7-1.25-.42-1.96-.67-2.21-1.31-.25-.68,.18-1.35,.22-1.42,.55-.85,1.63-.8,1.67-.8,.66,.04,.67,.42,1.52,.68,.23,.07,1.32,.37,2.32-.1,.46-.22,.46-.39,1.03-.62,.42-.16,.87-.25,1.32-.27,.5-.07,1.02-.07,1.52,0,.64,.11,1.29,.22,1.61,.74,.12,.19,.13,.46,.16,1,.04,.62-.05,.81-.09,.88-.11,.19-.24,.24-.63,.47-.55,.33-1.08,.7-1.59,1.08-.17,.12-.33,.24-.48,.38-.36,.34-.54,.61-.97,1.22-.45,.64-.68,.96-.69,.95-.08-.04,.12-1.09,.88-1.67,.09-.07,.44-.21,1.14-.5,.78-.32,1.17-.48,1.28-.51,.43-.14,.62-.16,.85-.36,.09-.08,.39-.35,.37-.69-.01-.17-.2-.37-.57-.77-.34-.36-.44-.42-.5-.45-.23-.12-.48-.16-.74-.14"/><path class="u" d="M178.6,98.35c-.12,.78,.73,1.47,1.22,1.86,.95,.76,1.86,.99,3.45,1.36,1.85,.44,2.77,.65,3.65,.41,.74-.2,1.34-.59,1.84-.29,.41,.25,.24,.65,.64,1.04,.43,.42,1.06,.37,2.92,.2,1.33-.12,1.99-.18,2.14-.2,2.57-.34,3.86-.52,4.36-.7,.83-.31,3.07-1.15,3.61-3.14,.21-.87,.11-1.79-.3-2.59-.07-.14-.78-1.4-2.2-1.77-1.73-.45-2.68,.9-4.05,.27-.53-.24-.39-.44-1.47-1.38-.92-.8-1.98-1.72-2.47-1.46-.77,.41,.78,3.33-.34,4.31-.6,.52-1.26-.09-3.18,.3-1.47,.31-1.41,.73-2.48,.8-1.37,.08-1.6-.62-3.5-.73-1.24-.07-1.94,.19-2.21,.3-.44,.18-1.48,.61-1.59,1.41Z"/><path class="u" d="M186.79,109.04c1.61-1.9,.6-2.14,.85-2.66,.23-.48,.58-.63,.65-1.23,.08-.71-.33-1.06-.34-1.79-.01-.43,.11-1.03,.71-1.7"/></g><g id="s" class="t"><path class="v" d="M158.28,87.74c2.49,2.17,8.49-.54,11.92-3.37,.87-.71,5.17-4.27,4.18-6.99-.54-1.49-2.43-2.07-2.52-2.09-2.26-.67-3.23,1.26-5.52,.87-1.99-.35-1.87-1.89-4.92-3-1.14-.42-2.61-.93-3.81-.24-1.02,.59-1.33,1.79-1.53,2.64,0,0-.04,.14-.07,.3-.44,2.26,.78,6.23,.78,6.23,.11,.33,.25,.82,.41,1.42,.27,1.1,.41,1.64,.44,2.11,.04,.71-.23,1.37,.63,2.13Z"/><path class="v" d="M151.2,76.65c.35-.25,2.09-1.45,4.08-.94,.62,.14,1.19,.44,1.65,.87,1.2,1.17,1.06,2.9,1.03,3.23-.1,1.29-.68,1.62-1.31,3.22-.32,.82-.63,1.42-.75,2.35-.07,.46-.07,.93-.02,1.39,.19,1.6,1.1,2.13,.86,2.58-.43,.79-2.73,.27-5.48-.35-3.83-.87-4.56-1.58-4.94-2.17-.14-.21-.94-1.49-.4-2.58,.46-.92,1.62-1.15,1.78-1.18,1.19-.22,1.57,.55,2.69,.33,.46-.09,.89-.43,1.09-.56,.32-.22,.62-.46,.9-.73,1.26-1.16,1.45-1.53,2.19-1.93,.27-.14,.56-.25,.85-.32,.35-.11,.72-.13,1.09-.06,.18,.05,.36,.12,.52,.22,.59,.37,.87,1.39,.82,2.36-.07,1.35-.84,3.03-.67,3.42,.07,.17,.17,.33,.29,.48,0,0,.04,.05,.08,.09,.17,.17,.58,.44,.83,.37,.33-.09,.24-.72,.54-1.37,.22-.47,.55-.75,1.52-1.37,1.49-.95,1.83-1.01,2.84-1.65,1.44-.92,2.25-1.45,2.35-2.33,.1-.92-.65-1.64-.72-1.7-.96-.87-2.27-.48-2.34-.47-.81,.26-.7,.73-1.68,1.32-.27,.16-1.53,.87-2.92,.61-.64-.12-.7-.34-1.48-.44-.58-.06-1.16-.04-1.73,.07-.65,.07-1.29,.24-1.89,.49-.77,.35-1.54,.68-1.77,1.43-.08,.28,0,.63,.13,1.31,.15,.79,.32,.99,.39,1.06,.19,.2,.37,.23,.93,.39,0,0,1.08,.32,2.32,.85,.25,.1,.49,.21,.72,.33,.56,.3,.86,.59,1.6,1.22,.77,.65,1.15,.98,1.16,.97,.08-.07-.49-1.32-1.63-1.8-.13-.05-.62-.12-1.59-.26-1.07-.15-1.61-.22-1.74-.23-.58-.03-.83,0-1.18-.17-.14-.07-.6-.31-.68-.74-.04-.21,.13-.52,.47-1.14,.31-.56,.42-.67,.48-.72,.25-.21,.55-.35,.87-.39"/><path class="v" d="M169.81,80.38c.39,.94-.45,2.06-.93,2.71-.93,1.25-2,1.82-3.86,2.79-2.17,1.13-3.25,1.69-4.42,1.67-.98-.02-1.86-.31-2.38,.22-.43,.44-.09,.89-.46,1.49-.4,.65-1.21,.8-3.57,1.18-1.69,.27-2.54,.4-2.73,.43-3.31,.39-4.97,.58-5.65,.51-1.13-.12-4.19-.46-5.48-2.76-.87-1.53-.49-3.14-.44-3.33s.52-1.99,2.19-2.91c2.01-1.11,3.62,.27,5.13-.96,.58-.47,.35-.68,1.39-2.18,.89-1.28,1.93-2.77,2.61-2.6,1.09,.27,.08,4.39,1.8,5.27,.91,.46,1.53-.52,4.06-.63,1.94-.09,1.99,.47,3.35,.21,1.74-.33,1.79-1.28,4.12-2.02,1.53-.48,2.48-.38,2.84-.33,.61,.09,2.04,.3,2.44,1.25Z"/><path class="v" d="M161.88,95.69c-2.61-1.85-1.42-2.48-1.9-3.04-.44-.52-.92-.6-1.2-1.33-.32-.85,.07-1.42-.14-2.34-.12-.54-.46-1.24-1.43-1.89"/></g></svg>