<?xml version="1.0" encoding="UTF-8"?><svg id="a" xmlns="http://www.w3.org/2000/svg" viewBox="0 0 205.85 102.95"><defs><style>.af{opacity:.03;}.ag{stroke:#2f64ad;}.ag,.ah{fill:none;stroke-miterlimit:10;}.ah{stroke:#d12627;}</style></defs><g id="b" class="af"><path class="ah" d="M15.78,50.61c11.34,5.63,14.78,8.51,14.34,9.89-.71,2.21-11.41,.48-11.68,1.97-.29,1.59,11.85,4.28,11.61,6.47-.25,2.28-13.6,2-13.74,3.85-.16,1.98,14.9,3.88,14.82,6.3s-15.9,3.18-15.91,5.21,15.73,2.73,15.86,5.66c.08,1.84-6.01,3.8-8.35,4.55-2.08,.67-4.21,1.15-6.37,1.42"/></g><g id="c" class="af"><path class="ag" d="M17.06,44.93c10.64-4.61,13.93-7.08,13.59-8.37-.55-2.06-10.42-.99-10.59-2.36-.18-1.47,11.04-3.36,10.93-5.37-.12-2.09-12.34-2.48-12.39-4.18-.05-1.82,13.82-2.84,13.87-5.06,.05-2.22-14.4-3.66-14.31-5.53,.09-1.86,14.52-1.74,14.77-4.41,.17-1.68-5.32-3.77-7.42-4.56-1.87-.71-3.8-1.25-5.76-1.6"/></g><g id="d" class="af"><path class="ah" d="M3.33,36.33c6.92,3.44,9.01,5.19,8.74,6.03-.44,1.35-6.96,.3-7.12,1.2-.17,.97,7.23,2.61,7.08,3.95-.15,1.39-8.29,1.22-8.38,2.35-.1,1.21,9.09,2.37,9.04,3.84s-9.7,1.94-9.7,3.18,9.59,1.67,9.67,3.45c.05,1.12-3.67,2.32-5.09,2.78-1.27,.41-2.57,.7-3.89,.87"/></g><g id="e" class="af"><path class="ag" d="M2.16,30.16c7.11-3.08,9.31-4.73,9.08-5.59-.37-1.37-6.96-.66-7.08-1.58-.12-.98,7.37-2.24,7.3-3.59-.08-1.4-8.25-1.66-8.28-2.8-.03-1.21,9.24-1.9,9.27-3.38S2.83,10.78,2.9,9.53s9.7-1.16,9.87-2.94c.11-1.12-3.56-2.52-4.96-3.05-1.25-.47-2.54-.83-3.85-1.07"/></g><g id="f" class="af"><path class="ag" d="M2.54,97.84c7.11-3.08,9.31-4.73,9.08-5.59-.37-1.37-6.96-.66-7.08-1.58-.12-.98,7.37-2.24,7.3-3.59-.08-1.4-8.25-1.66-8.28-2.8-.03-1.21,9.24-1.9,9.27-3.38s-9.62-2.45-9.56-3.69,9.7-1.16,9.87-2.94c.11-1.12-3.56-2.52-4.96-3.05-1.25-.47-2.54-.83-3.85-1.07"/></g><g id="g" class="af"><path class="ah" d="M49.86,51.07c11.34,5.63,14.78,8.51,14.34,9.89-.71,2.21-11.41,.48-11.68,1.97-.29,1.59,11.85,4.28,11.61,6.47-.25,2.28-13.6,2-13.74,3.85-.16,1.98,14.9,3.88,14.82,6.3s-15.9,3.18-15.91,5.21,15.73,2.73,15.86,5.66c.08,1.84-6.01,3.8-8.35,4.55-2.08,.67-4.21,1.15-6.37,1.42"/></g><g id="h" class="af"><path class="ag" d="M51.13,45.39c10.64-4.61,13.93-7.08,13.59-8.37-.55-2.06-10.42-.99-10.59-2.36-.18-1.47,11.04-3.36,10.93-5.37-.12-2.09-12.34-2.48-12.39-4.18-.05-1.82,13.82-2.84,13.87-5.06,.05-2.22-14.4-3.66-14.31-5.53,.09-1.86,14.52-1.74,14.77-4.41,.17-1.68-5.32-3.77-7.42-4.56-1.87-.71-3.8-1.25-5.76-1.6"/></g><g id="i" class="af"><path class="ah" d="M37.41,36.79c6.92,3.44,9.01,5.19,8.74,6.03-.44,1.35-6.96,.3-7.12,1.2-.17,.97,7.23,2.61,7.08,3.95-.15,1.39-8.29,1.22-8.38,2.35-.1,1.21,9.09,2.37,9.04,3.84s-9.7,1.94-9.7,3.18,9.59,1.67,9.67,3.45c.05,1.12-3.67,2.32-5.09,2.78-1.27,.41-2.57,.7-3.89,.87"/></g><g id="j" class="af"><path class="ag" d="M36.24,30.62c7.11-3.08,9.31-4.73,9.08-5.59-.37-1.37-6.96-.66-7.08-1.58-.12-.98,7.37-2.24,7.3-3.59-.08-1.4-8.25-1.66-8.28-2.8-.03-1.21,9.24-1.9,9.27-3.38s-9.62-2.45-9.56-3.69,9.7-1.16,9.87-2.94c.11-1.12-3.56-2.52-4.96-3.05-1.25-.47-2.54-.83-3.85-1.07"/></g><g id="k" class="af"><path class="ag" d="M36.61,98.3c7.11-3.08,9.31-4.73,9.08-5.59-.37-1.37-6.96-.66-7.08-1.58-.12-.98,7.37-2.24,7.3-3.59-.08-1.4-8.25-1.66-8.28-2.8-.03-1.21,9.24-1.9,9.27-3.38s-9.62-2.45-9.56-3.69,9.7-1.16,9.87-2.94c.11-1.12-3.56-2.52-4.96-3.05-1.25-.47-2.54-.83-3.85-1.07"/></g><g id="l" class="af"><path class="ah" d="M82.77,51.62c11.34,5.63,14.78,8.51,14.34,9.89-.71,2.21-11.41,.48-11.68,1.97-.29,1.59,11.85,4.28,11.61,6.47-.25,2.28-13.6,2-13.74,3.85-.16,1.98,14.9,3.88,14.82,6.3s-15.9,3.18-15.91,5.21,15.73,2.73,15.86,5.66c.08,1.84-6.01,3.8-8.35,4.55-2.08,.67-4.21,1.15-6.37,1.42"/></g><g id="m" class="af"><path class="ag" d="M84.04,45.94c10.64-4.61,13.93-7.08,13.59-8.37-.55-2.06-10.42-.99-10.59-2.36-.18-1.47,11.04-3.36,10.93-5.37-.12-2.09-12.34-2.48-12.39-4.18-.05-1.82,13.82-2.84,13.87-5.06,.05-2.22-14.4-3.66-14.31-5.53,.09-1.86,14.52-1.74,14.77-4.41,.17-1.68-5.32-3.77-7.42-4.56-1.87-.71-3.8-1.25-5.76-1.6"/></g><g id="n" class="af"><path class="ah" d="M70.32,37.34c6.92,3.44,9.01,5.19,8.74,6.03-.44,1.35-6.96,.3-7.12,1.2-.17,.97,7.23,2.61,7.08,3.95-.15,1.39-8.29,1.22-8.38,2.35-.1,1.21,9.09,2.37,9.04,3.84s-9.7,1.94-9.7,3.18,9.59,1.67,9.67,3.45c.05,1.12-3.67,2.32-5.09,2.78-1.27,.41-2.57,.7-3.89,.87"/></g><g id="o" class="af"><path class="ag" d="M69.15,31.17c7.11-3.08,9.31-4.73,9.08-5.59-.37-1.37-6.96-.66-7.08-1.58-.12-.98,7.37-2.24,7.3-3.59-.08-1.4-8.25-1.66-8.28-2.8-.03-1.21,9.24-1.9,9.27-3.38s-9.62-2.45-9.56-3.69,9.7-1.16,9.87-2.94c.11-1.12-3.56-2.52-4.96-3.05-1.25-.47-2.54-.83-3.85-1.07"/></g><g id="p" class="af"><path class="ag" d="M69.52,98.85c7.11-3.08,9.31-4.73,9.08-5.59-.37-1.37-6.96-.66-7.08-1.58-.12-.98,7.37-2.24,7.3-3.59-.08-1.4-8.25-1.66-8.28-2.8-.03-1.21,9.24-1.9,9.27-3.38s-9.62-2.45-9.56-3.69,9.7-1.16,9.87-2.94c.11-1.12-3.56-2.52-4.96-3.05-1.25-.47-2.54-.83-3.85-1.07"/></g><g id="q" class="af"><path class="ah" d="M116.84,52.08c11.34,5.63,14.78,8.51,14.34,9.89-.71,2.21-11.41,.48-11.68,1.97-.29,1.59,11.85,4.28,11.61,6.47-.25,2.28-13.6,2-13.74,3.85-.16,1.98,14.9,3.88,14.82,6.3s-15.9,3.18-15.91,5.21,15.73,2.73,15.86,5.66c.08,1.84-6.01,3.8-8.35,4.55-2.08,.67-4.21,1.15-6.37,1.42"/></g><g id="r" class="af"><path class="ag" d="M118.12,46.4c10.64-4.61,13.93-7.08,13.59-8.37-.55-2.06-10.42-.99-10.59-2.36-.18-1.47,11.04-3.36,10.93-5.37-.12-2.09-12.34-2.48-12.39-4.18-.05-1.82,13.82-2.84,13.87-5.06,.05-2.22-14.4-3.66-14.31-5.53,.09-1.86,14.52-1.74,14.77-4.41,.17-1.68-5.32-3.77-7.42-4.56-1.87-.71-3.8-1.25-5.76-1.6"/></g><g id="s" class="af"><path class="ah" d="M104.39,37.8c6.92,3.44,9.01,5.19,8.74,6.03-.44,1.35-6.96,.3-7.12,1.2-.17,.97,7.23,2.61,7.08,3.95-.15,1.39-8.29,1.22-8.38,2.35-.1,1.21,9.09,2.37,9.04,3.84s-9.7,1.94-9.7,3.18,9.59,1.67,9.67,3.45c.05,1.12-3.67,2.32-5.09,2.78-1.27,.41-2.57,.7-3.89,.87"/></g><g id="t" class="af"><path class="ag" d="M103.22,31.63c7.11-3.08,9.31-4.73,9.08-5.59-.37-1.37-6.96-.66-7.08-1.58-.12-.98,7.37-2.24,7.3-3.59-.08-1.4-8.25-1.66-8.28-2.8-.03-1.21,9.24-1.9,9.27-3.38s-9.62-2.45-9.56-3.69,9.7-1.16,9.87-2.94c.11-1.12-3.56-2.52-4.96-3.05-1.25-.47-2.54-.83-3.85-1.07"/></g><g id="u" class="af"><path class="ag" d="M103.6,99.31c7.11-3.08,9.31-4.73,9.08-5.59-.37-1.37-6.96-.66-7.08-1.58-.12-.98,7.37-2.24,7.3-3.59-.08-1.4-8.25-1.66-8.28-2.8-.03-1.21,9.24-1.9,9.27-3.38s-9.62-2.45-9.56-3.69,9.7-1.16,9.87-2.94c.11-1.12-3.56-2.52-4.96-3.05-1.25-.47-2.54-.83-3.85-1.07"/></g><g id="v" class="af"><path class="ah" d="M151.89,52.31c11.34,5.63,14.78,8.51,14.34,9.89-.71,2.21-11.41,.48-11.68,1.97-.29,1.59,11.85,4.28,11.61,6.47-.25,2.28-13.6,2-13.74,3.85-.16,1.98,14.9,3.88,14.82,6.3s-15.9,3.18-15.91,5.21,15.73,2.73,15.86,5.66c.08,1.84-6.01,3.8-8.35,4.55-2.08,.67-4.21,1.15-6.37,1.42"/></g><g id="w" class="af"><path class="ag" d="M153.17,46.63c10.64-4.61,13.93-7.08,13.59-8.37-.55-2.06-10.42-.99-10.59-2.36-.18-1.47,11.04-3.36,10.93-5.37-.12-2.09-12.34-2.48-12.39-4.18-.05-1.82,13.82-2.84,13.87-5.06,.05-2.22-14.4-3.66-14.31-5.53,.09-1.86,14.52-1.74,14.77-4.41,.17-1.68-5.32-3.77-7.42-4.56-1.87-.71-3.8-1.25-5.76-1.6"/></g><g id="x" class="af"><path class="ah" d="M139.45,38.03c6.92,3.44,9.01,5.19,8.74,6.03-.44,1.35-6.96,.3-7.12,1.2-.17,.97,7.23,2.61,7.08,3.95-.15,1.39-8.29,1.22-8.38,2.35-.1,1.21,9.09,2.37,9.04,3.84s-9.7,1.94-9.7,3.18,9.59,1.67,9.67,3.45c.05,1.12-3.67,2.32-5.09,2.78-1.27,.41-2.57,.7-3.89,.87"/></g><g id="y" class="af"><path class="ag" d="M138.28,31.86c7.11-3.08,9.31-4.73,9.08-5.59-.37-1.37-6.96-.66-7.08-1.58-.12-.98,7.37-2.24,7.3-3.59-.08-1.4-8.25-1.66-8.28-2.8-.03-1.21,9.24-1.9,9.27-3.38s-9.62-2.45-9.56-3.69,9.7-1.16,9.87-2.94c.11-1.12-3.56-2.52-4.96-3.05-1.25-.47-2.54-.83-3.85-1.07"/></g><g id="a`" class="af"><path class="ag" d="M138.65,99.54c7.11-3.08,9.31-4.73,9.08-5.59-.37-1.37-6.96-.66-7.08-1.58-.12-.98,7.37-2.24,7.3-3.59-.08-1.4-8.25-1.66-8.28-2.8-.03-1.21,9.24-1.9,9.27-3.38s-9.62-2.45-9.56-3.69,9.7-1.16,9.87-2.94c.11-1.12-3.56-2.52-4.96-3.05-1.25-.47-2.54-.83-3.85-1.07"/></g><g id="aa" class="af"><path class="ah" d="M185.97,52.77c11.34,5.63,14.78,8.51,14.34,9.89-.71,2.21-11.41,.48-11.68,1.97-.29,1.59,11.85,4.28,11.61,6.47-.25,2.28-13.6,2-13.74,3.85-.16,1.98,14.9,3.88,14.82,6.3s-15.9,3.18-15.91,5.21,15.73,2.73,15.86,5.66c.08,1.84-6.01,3.8-8.35,4.55-2.08,.67-4.21,1.15-6.37,1.42"/></g><g id="ab" class="af"><path class="ag" d="M187.25,47.09c10.64-4.61,13.93-7.08,13.59-8.37-.55-2.06-10.42-.99-10.59-2.36-.18-1.47,11.04-3.36,10.93-5.37-.12-2.09-12.34-2.48-12.39-4.18-.05-1.82,13.82-2.84,13.87-5.06,.05-2.22-14.4-3.66-14.31-5.53,.09-1.86,14.52-1.74,14.77-4.41,.17-1.68-5.32-3.77-7.42-4.56-1.87-.71-3.8-1.25-5.76-1.6"/></g><g id="ac" class="af"><path class="ah" d="M173.52,38.49c6.92,3.44,9.01,5.19,8.74,6.03-.44,1.35-6.96,.3-7.12,1.2-.17,.97,7.23,2.61,7.08,3.95-.15,1.39-8.29,1.22-8.38,2.35-.1,1.21,9.09,2.37,9.04,3.84s-9.7,1.94-9.7,3.18,9.59,1.67,9.67,3.45c.05,1.12-3.67,2.32-5.09,2.78-1.27,.41-2.57,.7-3.89,.87"/></g><g id="ad" class="af"><path class="ag" d="M172.35,32.32c7.11-3.08,9.31-4.73,9.08-5.59-.37-1.37-6.96-.66-7.08-1.58-.12-.98,7.37-2.24,7.3-3.59-.08-1.4-8.25-1.66-8.28-2.8-.03-1.21,9.24-1.9,9.27-3.38s-9.62-2.45-9.56-3.69,9.7-1.16,9.87-2.94c.11-1.12-3.56-2.52-4.96-3.05-1.25-.47-2.54-.83-3.85-1.07"/></g><g id="ae" class="af"><path class="ag" d="M172.73,100c7.11-3.08,9.31-4.73,9.08-5.59-.37-1.37-6.96-.66-7.08-1.58-.12-.98,7.37-2.24,7.3-3.59-.08-1.4-8.25-1.66-8.28-2.8-.03-1.21,9.24-1.9,9.27-3.38s-9.62-2.45-9.56-3.69,9.7-1.16,9.87-2.94c.11-1.12-3.56-2.52-4.96-3.05-1.25-.47-2.54-.83-3.85-1.07"/></g></svg>