<svg xmlns="http://www.w3.org/2000/svg" viewBox="0 0 215.87 143.11"><defs><style>.cls-1{fill:none;stroke:#d12221;stroke-miterlimit:10;}</style></defs><g id="Layer_4" data-name="Layer 4"><path class="cls-1" d="M109.38,88.55c-10.75,15.61-48,9-71.09-1.88-5.82-2.75-34.83-16.46-33.2-33,.89-9,10.58-15,11-15.22,11.67-6.92,19.73,2.42,32-3,10.58-4.71,7.74-13.14,23.13-23.67C76.93,7.85,84.4,2.89,92,5.09,98.6,7,102,13.21,104.4,17.68c0,0,.42.75.8,1.56C110.84,31.18,109.65,55,109.65,55c-.12,2-.26,4.92-.25,8.45,0,6.49,0,9.73.5,12.38C110.65,79.84,113.11,83.14,109.38,88.55Z"/><path class="cls-1" d="M133.08,16.81c-2.33-.91-13.66-5.09-24,.55a20.16,20.16,0,0,0-7.92,7.19c-5,8.21-1.8,17.62-1.17,19.45,2.4,7,6.07,8.08,11.83,16.08,2.94,4.08,5.54,7,7.49,12a31.47,31.47,0,0,1,2.11,7.72c1.21,9.19-3.11,13.42-1.11,15.58,3.52,3.79,15.59-2.36,30-9.71,20.11-10.25,23.12-15.26,24.42-19.07.46-1.37,3.1-9.65-1.41-14.91-3.86-4.5-10.66-4.13-11.56-4.07-6.94.48-8,5.25-14.51,5.67-2.66.17-5.57-1.13-6.86-1.58a36.62,36.62,0,0,1-6-2.79c-8.67-4.67-10.24-6.47-14.91-7.62a21.19,21.19,0,0,0-5.2-.6,12.53,12.53,0,0,0-6.11,1.23,11.41,11.41,0,0,0-2.62,2c-2.75,2.88-2.89,9-1.23,14.3,2.31,7.38,8.93,15.68,8.58,18.1a11.76,11.76,0,0,1-.94,3.07s-.17.34-.34.62c-.74,1.25-2.62,3.27-4.08,3.26-2,0-2.36-3.68-4.94-6.84-1.86-2.28-4.09-3.37-10.4-5.47-9.61-3.18-11.61-3-18.11-5.16-9.34-3.08-14.6-4.89-16.38-9.63-1.88-5,1.3-10,1.59-10.46,4.07-6.25,12-5.92,12.34-5.9,4.84.28,4.9,3.08,11.21,5,1.73.52,9.75,2.71,17.12-.76,3.39-1.59,3.4-2.86,7.6-4.55a32.89,32.89,0,0,1,9.73-2,39.43,39.43,0,0,1,11.22.06c4.76.8,9.52,1.6,11.88,5.45.86,1.39.93,3.42,1.18,7.41.29,4.6-.38,6-.67,6.47-.8,1.41-1.75,1.78-4.63,3.48,0,0-5.58,3.32-11.74,8a45,45,0,0,0-3.57,2.9c-2.68,2.5-4,4.49-7.15,9-3.35,4.73-5,7.11-5.1,7-.57-.29.86-8.06,6.52-12.3.66-.5,3.26-1.56,8.46-3.69,5.76-2.35,8.63-3.52,9.41-3.77,3.18-1,4.62-1.16,6.31-2.67.67-.6,2.89-2.58,2.73-5.06-.08-1.25-1.46-2.75-4.22-5.69-2.53-2.7-3.27-3.13-3.68-3.34a9.61,9.61,0,0,0-5.43-1"/><path class="cls-1" d="M34.81,63.91c-.85,5.76,5.41,10.83,9,13.76C50.8,83.3,57.58,85,69.29,87.73c13.65,3.21,20.48,4.82,26.94,3,5.45-1.49,9.88-4.37,13.55-2.13,3,1.82,1.76,4.8,4.68,7.63,3.16,3.07,7.86,2.75,21.54,1.49,9.79-.89,14.68-1.34,15.76-1.48,19-2.54,28.51-3.82,32.17-5.19,6.14-2.3,22.67-8.51,26.61-23.14,2.63-9.75-1.71-18.15-2.23-19.13S202.59,38.47,192,35.74c-12.77-3.3-19.74,6.65-29.9,2-3.9-1.8-2.89-3.28-10.84-10.15-6.78-5.87-14.64-12.67-18.21-10.75-5.65,3,5.78,24.54-2.54,31.84-4.4,3.87-9.27-.71-23.48,2.22-10.91,2.24-10.43,5.43-18.34,5.9-10.16.6-11.79-4.61-25.81-5.41-9.19-.53-14.34,1.37-16.29,2.17C43.36,54.89,35.68,58.07,34.81,63.91Z"/><path class="cls-1" d="M95.3,142.79c11.87-14,4.42-15.82,6.24-19.62,1.7-3.56,4.26-4.62,4.76-9.11.59-5.21-2.39-7.79-2.54-13.2-.09-3.2.81-7.57,5.27-12.57"/></g></svg>