<svg xmlns="http://www.w3.org/2000/svg" viewBox="0 0 209.23 142.01"><defs><style>.cls-1{fill:none;stroke:#d12221;stroke-miterlimit:10;}</style></defs><g id="Layer_4" data-name="Layer 4"><path class="cls-1" d="M111.6,93c14.27,12.48,48.74-3.08,68.44-19.35,5-4.1,29.69-24.54,24-40.14-3.09-8.54-13.94-11.89-14.44-12-13-3.83-18.52,7.21-31.7,5-11.42-2-10.74-10.83-28.25-17.24-6.54-2.4-15-5.36-21.86-1.35C101.94,11.3,100.15,18.19,99,23.1c0,0-.21.83-.38,1.71-2.53,13,4.5,35.75,4.5,35.75.61,1.92,1.46,4.71,2.33,8.13C107,75,107.79,78.12,108,80.8,108.22,84.88,106.66,88.68,111.6,93Z"/><path class="cls-1" d="M70.94,29.33c2-1.46,12-8.3,23.41-5.39a20.17,20.17,0,0,1,9.45,5c6.89,6.72,6.09,16.63,5.93,18.56-.6,7.39-3.89,9.32-7.5,18.5-1.85,4.68-3.64,8.18-4.31,13.47a31.69,31.69,0,0,0-.13,8c1.09,9.2,6.32,12.24,4.91,14.82-2.48,4.54-15.69,1.56-31.49-2-22-5-26.18-9.09-28.37-12.46-.78-1.21-5.38-8.58-2.31-14.8,2.63-5.31,9.31-6.62,10.2-6.79,6.84-1.24,9,3.13,15.46,1.92,2.62-.49,5.11-2.46,6.26-3.22a37.71,37.71,0,0,0,5.14-4.19c7.24-6.67,8.33-8.8,12.56-11.06a21.44,21.44,0,0,1,4.9-1.86,12.47,12.47,0,0,1,6.23-.32,11.65,11.65,0,0,1,3,1.27c3.37,2.12,5,8,4.72,13.56-.43,7.73-4.8,17.4-3.86,19.65a11.72,11.72,0,0,0,1.67,2.75s.25.29.48.52c1,1,3.35,2.52,4.76,2.15,1.89-.5,1.38-4.15,3.1-7.85,1.24-2.67,3.14-4.28,8.73-7.86,8.53-5.45,10.51-5.79,16.28-9.47,8.29-5.28,12.94-8.34,13.5-13.37.6-5.3-3.73-9.39-4.12-9.75-5.49-5-13.06-2.78-13.41-2.67-4.63,1.47-4,4.19-9.64,7.57-1.55.93-8.79,5-16.78,3.49-3.68-.71-4-1.94-8.49-2.54a33,33,0,0,0-9.94.43,39.26,39.26,0,0,0-10.85,2.82c-4.41,2-8.83,3.9-10.17,8.2C69.79,58,70.22,60,71,63.91c.86,4.53,1.84,5.68,2.25,6.1,1.11,1.17,2.14,1.3,5.35,2.23,0,0,6.22,1.85,13.34,4.86A38.79,38.79,0,0,1,96.07,79c3.21,1.75,4.94,3.37,9.16,7,4.4,3.75,6.58,5.65,6.68,5.57.48-.42-2.83-7.6-9.36-10.32-.76-.31-3.55-.7-9.11-1.48-6.15-.86-9.23-1.29-10-1.33-3.32-.19-4.76,0-6.77-1-.8-.41-3.44-1.78-3.89-4.24-.23-1.22.74-3,2.69-6.55,1.78-3.23,2.4-3.83,2.74-4.14a9.71,9.71,0,0,1,5-2.26"/><path class="cls-1" d="M177.79,50.75c2.25,5.37-2.57,11.82-5.36,15.56-5.35,7.16-11.51,10.46-22.18,16-12.44,6.48-18.65,9.72-25.36,9.59-5.65-.1-10.65-1.8-13.66,1.27-2.45,2.51-.52,5.09-2.65,8.56-2.31,3.75-6.94,4.59-20.5,6.75-9.71,1.55-14.57,2.32-15.65,2.44-19,2.23-28.56,3.34-32.46,2.91C33.46,113.13,15.91,111.2,8.48,98c-5-8.8-2.82-18-2.55-19.09s3-11.43,12.55-16.68C30,55.85,39.25,63.78,47.94,56.74c3.34-2.7,2-3.89,8-12.51,5.12-7.36,11.06-15.88,15-14.9,6.23,1.55.46,25.21,10.31,30.23,5.22,2.66,8.81-3,23.31-3.64,11.12-.51,11.45,2.69,19.23,1.19,10-1.92,10.29-7.37,23.68-11.6,8.77-2.78,14.24-2.21,16.32-1.91C167.28,44.11,175.51,45.3,177.79,50.75Z"/><path class="cls-1" d="M132.25,138.65c-15-10.61-8.18-14.24-10.88-17.48-2.53-3-5.27-3.42-6.87-7.65-1.85-4.9.4-8.14-.79-13.42-.7-3.11-2.65-7.13-8.2-10.87"/></g></svg>