<svg xmlns="http://www.w3.org/2000/svg" viewBox="0 0 211.63 142.96"><defs><style>.cls-1{fill:none;stroke:#2f63ad;stroke-miterlimit:10;}</style></defs><g id="Layer_4" data-name="Layer 4"><path class="cls-1" d="M107.79,88.39C97,104,59.8,97.43,36.7,86.51c-5.81-2.75-34.83-16.45-33.2-33,.9-9,10.58-15,11-15.22,11.67-6.92,19.73,2.43,31.95-3,10.58-4.71,7.74-13.14,23.12-23.67,5.75-3.93,13.22-8.9,20.86-6.7,6.55,1.89,10,8.13,12.36,12.59,0,0,.41.76.79,1.56,5.65,11.94,4.45,35.76,4.45,35.76-.12,2-.25,4.93-.25,8.46,0,6.48,0,9.72.5,12.37C109.06,79.68,111.52,83,107.79,88.39Z"/><path class="cls-1" d="M131.5,16.65c-2.33-.91-13.66-5.09-24,.55a20.19,20.19,0,0,0-7.92,7.2c-5,8.2-1.8,17.61-1.17,19.45,2.41,7,6.07,8.07,11.84,16.07,2.94,4.08,5.54,7,7.49,12a31.55,31.55,0,0,1,2.1,7.72c1.21,9.2-3.1,13.43-1.1,15.58,3.52,3.8,15.58-2.35,30-9.71,20.12-10.25,23.13-15.26,24.42-19.07.46-1.36,3.1-9.64-1.41-14.91-3.85-4.5-10.65-4.13-11.56-4.06-6.94.47-7.95,5.25-14.5,5.66-2.66.17-5.57-1.12-6.87-1.57a38.09,38.09,0,0,1-6-2.8c-8.66-4.67-10.24-6.47-14.9-7.62a21,21,0,0,0-5.21-.59,12.42,12.42,0,0,0-6.11,1.23,11.43,11.43,0,0,0-2.62,2c-2.74,2.88-2.89,9-1.23,14.3,2.32,7.39,8.94,15.68,8.59,18.1a11.56,11.56,0,0,1-1,3.08s-.16.33-.33.61c-.75,1.26-2.62,3.28-4.08,3.26-2,0-2.37-3.68-5-6.84-1.86-2.28-4.09-3.37-10.4-5.46-9.61-3.19-11.6-3-18.11-5.17C63.18,62.56,57.92,60.74,56.13,56c-1.88-5,1.3-10,1.59-10.46,4.08-6.24,12-5.92,12.34-5.9,4.85.29,4.91,3.08,11.21,5,1.73.52,9.76,2.71,17.12-.75,3.39-1.6,3.41-2.87,7.6-4.56a33.34,33.34,0,0,1,9.74-2,39.4,39.4,0,0,1,11.21.07c4.76.8,9.52,1.59,11.89,5.44.85,1.39.93,3.42,1.18,7.41.28,4.6-.38,6-.67,6.47-.8,1.41-1.76,1.79-4.64,3.48a139.76,139.76,0,0,0-11.73,8A39.86,39.86,0,0,0,119.4,71c-2.68,2.5-4,4.49-7.16,9-3.34,4.72-5,7.1-5.1,7-.57-.28.86-8.06,6.53-12.3.66-.5,3.26-1.56,8.45-3.68,5.76-2.35,8.64-3.53,9.42-3.77,3.17-1,4.61-1.17,6.31-2.68.67-.6,2.89-2.58,2.72-5.06-.08-1.25-1.46-2.75-4.22-5.69-2.52-2.69-3.27-3.12-3.67-3.33a9.73,9.73,0,0,0-5.43-1"/><path class="cls-1" d="M33.23,63.75c-.86,5.76,5.41,10.83,9,13.76,7,5.63,13.74,7.31,25.45,10.06,13.65,3.22,20.47,4.82,26.93,3.05,5.45-1.5,9.88-4.38,13.55-2.14,3,1.83,1.77,4.8,4.69,7.64,3.16,3.07,7.85,2.74,21.53,1.49,9.79-.9,14.69-1.35,15.76-1.49,19-2.54,28.51-3.81,32.18-5.19,6.13-2.3,22.67-8.5,26.61-23.14a27.62,27.62,0,0,0-2.24-19.13c-.51-1-5.72-10.34-16.27-13.08-12.78-3.3-19.75,6.65-29.9,2-3.9-1.8-2.9-3.28-10.85-10.15-6.78-5.87-14.64-12.66-18.2-10.75-5.65,3,5.77,24.54-2.54,31.84-4.4,3.87-9.27-.7-23.49,2.22C94.57,53,95,56.14,87.13,56.61,77,57.21,75.34,52,61.32,51.2,52.14,50.67,47,52.57,45,53.38,41.78,54.73,34.09,57.91,33.23,63.75Z"/><path class="cls-1" d="M93.71,142.63c11.87-14,4.42-15.82,6.24-19.62,1.7-3.56,4.26-4.62,4.77-9.11.58-5.21-2.4-7.79-2.54-13.2-.09-3.2.81-7.57,5.26-12.56"/></g></svg>