<svg xmlns="http://www.w3.org/2000/svg" viewBox="0 0 212.72 146.39"><defs><style>.cls-1{fill:none;stroke:#2f63ad;stroke-miterlimit:10;}</style></defs><g id="Layer_4" data-name="Layer 4"><path class="cls-1" d="M112.72,94.48C127,107,161.46,91.4,181.16,75.13c5-4.1,29.7-24.54,24-40.14-3.09-8.54-13.94-11.89-14.44-12-13-3.84-18.52,7.21-31.7,4.95-11.42-2-10.74-10.83-28.25-17.24-6.53-2.4-15-5.37-21.86-1.35-5.89,3.45-7.68,10.33-8.88,15.24,0,0-.21.84-.38,1.72-2.53,13,4.5,35.75,4.5,35.75.61,1.91,1.46,4.71,2.33,8.13,1.6,6.28,2.39,9.43,2.56,12.11C109.35,86.35,107.78,90.15,112.72,94.48Z"/><path class="cls-1" d="M72.06,30.79c2-1.46,12-8.3,23.41-5.39a20.22,20.22,0,0,1,9.45,5c6.89,6.71,6.09,16.63,5.93,18.56-.6,7.39-3.89,9.32-7.5,18.49C101.5,72.16,99.71,75.67,99,81a31.61,31.61,0,0,0-.13,8c1.09,9.21,6.32,12.24,4.91,14.83-2.47,4.54-15.69,1.56-31.49-2-22-5-26.18-9.09-28.37-12.46-.78-1.21-5.38-8.59-2.31-14.8,2.63-5.31,9.31-6.63,10.2-6.79,6.84-1.25,9,3.13,15.46,1.92,2.62-.49,5.12-2.47,6.26-3.22a39.3,39.3,0,0,0,5.14-4.19C86,55.57,87,53.44,91.27,51.18a21,21,0,0,1,4.9-1.86A12.47,12.47,0,0,1,102.4,49a11.65,11.65,0,0,1,3,1.27c3.37,2.12,5,8,4.72,13.55-.42,7.73-4.8,17.4-3.86,19.66A11.57,11.57,0,0,0,108,86.23s.24.28.47.51c1,1,3.35,2.53,4.76,2.16,1.89-.5,1.38-4.15,3.1-7.85,1.24-2.67,3.14-4.28,8.74-7.86,8.52-5.45,10.5-5.79,16.27-9.47,8.29-5.28,12.94-8.34,13.5-13.37.6-5.3-3.73-9.39-4.12-9.75-5.48-5-13.06-2.78-13.41-2.67-4.62,1.47-4,4.19-9.64,7.57-1.55.93-8.79,5-16.78,3.49-3.68-.71-4-1.94-8.49-2.54a32.56,32.56,0,0,0-9.93.42A39.29,39.29,0,0,0,81.57,49.7c-4.41,1.95-8.83,3.89-10.17,8.2-.49,1.56-.06,3.55.68,7.48.86,4.53,1.84,5.68,2.25,6.1,1.12,1.17,2.14,1.3,5.35,2.23A140,140,0,0,1,93,78.57a41,41,0,0,1,4.17,1.92c3.22,1.76,5,3.38,9.16,7,4.4,3.76,6.58,5.66,6.68,5.58.48-.42-2.83-7.6-9.36-10.32-.76-.32-3.54-.71-9.1-1.48-6.16-.86-9.24-1.29-10.06-1.34-3.32-.18-4.76,0-6.77-1-.8-.42-3.44-1.79-3.89-4.24-.23-1.23.74-3,2.69-6.55,1.78-3.23,2.4-3.83,2.74-4.14a9.63,9.63,0,0,1,5-2.26"/><path class="cls-1" d="M178.91,52.21c2.25,5.37-2.57,11.83-5.36,15.57-5.35,7.16-11.51,10.46-22.18,16-12.44,6.48-18.65,9.72-25.35,9.59-5.66-.11-10.66-1.81-13.66,1.27-2.46,2.51-.53,5.09-2.66,8.55-2.3,3.76-6.94,4.6-20.5,6.76-9.71,1.54-14.56,2.32-15.65,2.44-19,2.22-28.56,3.34-32.45,2.91C34.58,114.6,17,112.66,9.6,99.45c-4.94-8.8-2.82-18-2.55-19.09S10,68.93,19.6,63.67c11.57-6.35,20.77,1.58,29.46-5.46,3.34-2.71,2-3.89,8-12.51,5.12-7.36,11.06-15.88,15-14.91C78.29,32.34,72.52,56,82.37,61c5.23,2.66,8.82-3,23.31-3.64,11.13-.52,11.45,2.68,19.23,1.19,10-1.92,10.29-7.37,23.68-11.61,8.77-2.77,14.24-2.2,16.32-1.9C168.4,45.58,176.64,46.77,178.91,52.21Z"/><path class="cls-1" d="M135.22,140.12c-15-10.61-8.19-14.24-10.89-17.48-2.52-3-5.26-3.43-6.86-7.65-1.85-4.9.4-8.14-.79-13.42-.71-3.12-2.65-7.14-8.21-10.88"/></g></svg>