<?xml version="1.0" encoding="UTF-8"?><svg xmlns="http://www.w3.org/2000/svg" viewBox="0 0 1253.45 538.02"><defs><style>.e{fill:#d02120;font-family:Futura-Bold, Futura;font-size:200px;}.f{font-size:273.57px;}.f,.g{fill:#0e66d7;font-family:CourierNewPSMT, Courier New;}.h{fill:#fff;}.h,.i{stroke:#000;stroke-miterlimit:10;}.i{fill:none;}.g{font-size:100px;}</style></defs><g id="a"><polyline class="i" points="54.72 56 170.31 41.45 120.94 164.06 241.78 98.68 140.41 374.03 426.9 202.58 291.75 529.28 524.37 319 515.72 537 657.72 433"/></g><g id="b"/><g id="c"><path class="i" d="M1168.22,51.35c-114.21-107.63-200.02-20.17-226.72,40.37-39.19,88.86-81.42,182.6-185.12,216.42-90.17,29.41-142.62-72.56-241.6-48.77-114.63,27.56-108.87,179.86-232.18,234.71-49.64,22.08-135.15,35.02-282.39-36.58"/><path class="i" d="M479.98,246.47c52.6-48.28,117.62-93.84,155.17-59.92,43.74,39.51,16.09,156,58.65,186.21,48.05,34.11,106.05-98.23,177.4-81.58,80.66,18.83,71.7,203.18,154.14,240.08,35.15,15.73,95.41,8.46,201.78-118.22"/></g><g id="d"><text class="f" transform="translate(279.63 224.34) scale(.85 1)"><tspan x="0" y="0">2 0 2 2</tspan></text><text class="e" transform="translate(77.32 329.31)"><tspan x="0" y="0">VILDSKUD</tspan></text><text class="g" transform="translate(195 432.89)"><tspan x="0" y="0" xml:space="preserve">03.08.   07.08.</tspan></text><text class="g" transform="translate(206 432.89)"><tspan x="0" y="0" xml:space="preserve">03.08.   07.08.</tspan></text><line class="h" x1="564.22" y1="401.5" x2="699.22" y2="401.5"/></g></svg>