<?xml version="1.0" encoding="UTF-8"?><svg xmlns="http://www.w3.org/2000/svg" viewBox="0 0 347.7 190.49"><defs><style>.d{font-size:83.73px;}.d,.e,.f,.g{stroke-width:2px;}.d,.g{fill:#1d1d1b;font-family:Futura-Bold, Futura;stroke:#1d1d1b;}.e{stroke:#d12221;}.e,.f{fill:none;stroke-miterlimit:10;}.f{stroke:#2f63ad;}.h{opacity:.5;}.g{font-size:82.91px;}</style></defs><g id="a"/><g id="b"/><g id="c"><g class="h"><path class="e" d="M182.9,148.85c23.44,20.5,80.06-5.06,112.42-31.79,8.14-6.72,48.79-40.3,39.5-65.93-5.08-14.03-22.9-19.53-23.72-19.77-21.38-6.29-30.42,11.85-52.09,8.14-18.75-3.22-17.64-17.79-46.4-28.32-10.74-3.94-24.65-8.81-35.92-2.21-9.67,5.66-12.61,16.98-14.58,25.04,0,0-.35,1.37-.63,2.81-4.15,21.29,7.4,58.73,7.4,58.73,1.01,3.14,2.4,7.73,3.82,13.35,2.62,10.32,3.93,15.49,4.21,19.9,.43,6.69-2.15,12.94,5.98,20.05Z"/><path class="e" d="M116.1,44.23c3.34-2.4,19.68-13.63,38.46-8.85,3.03,.77,9.67,2.55,15.52,8.25,11.33,11.03,10,27.32,9.74,30.49-.99,12.14-6.39,15.31-12.33,30.38-3.03,7.69-5.97,13.44-7.07,22.14-.35,2.78-.91,7.42-.22,13.15,1.8,15.13,10.38,20.11,8.07,24.35-4.07,7.47-25.77,2.57-51.74-3.3-36.17-8.17-43-14.93-46.59-20.47-1.29-1.99-8.85-14.1-3.8-24.31,4.32-8.72,15.29-10.89,16.75-11.15,11.24-2.05,14.79,5.14,25.39,3.15,4.3-.81,8.41-4.05,10.29-5.29,2.69-1.78,4.73-3.47,8.44-6.88,11.9-10.95,13.68-14.45,20.64-18.16,1.1-.58,4-2.07,8.04-3.06,2.94-.72,6.24-1.48,10.23-.52,0,0,2.7,.65,4.97,2.08,5.53,3.48,8.24,13.17,7.75,22.27-.69,12.7-7.88,28.58-6.34,32.29,1.05,2.53,2.75,4.52,2.75,4.52s.4,.46,.78,.84c1.69,1.7,5.5,4.15,7.82,3.54,3.11-.82,2.27-6.81,5.1-12.89,2.04-4.38,5.15-7.03,14.35-12.91,14.01-8.96,17.25-9.52,26.74-15.56,13.62-8.67,21.26-13.7,22.18-21.96,.97-8.7-6.13-15.42-6.77-16.02-9.01-8.29-21.45-4.57-22.03-4.38-7.6,2.41-6.57,6.88-15.84,12.43-2.55,1.52-14.44,8.26-27.56,5.73-6.04-1.17-6.59-3.18-13.94-4.17-6.09-.81-10.9-.12-16.32,.69-5.48,.83-11.11,1.68-17.83,4.64-7.25,3.2-14.5,6.4-16.71,13.48-.8,2.56-.1,5.82,1.12,12.28,1.4,7.44,3.02,9.33,3.69,10.03,1.84,1.92,3.52,2.13,8.79,3.66,0,0,10.23,3.02,21.92,7.97,3.12,1.32,4.68,1.98,6.86,3.17,5.28,2.88,8.12,5.54,15.04,11.43,7.24,6.16,10.82,9.29,10.97,9.15,.79-.69-4.64-12.49-15.37-16.95-1.26-.52-5.82-1.16-14.96-2.43-10.12-1.41-15.17-2.12-16.51-2.19-5.46-.3-7.82,.01-11.13-1.71-1.3-.68-5.64-2.93-6.39-6.95-.38-2.02,1.22-4.96,4.42-10.76,2.93-5.31,3.95-6.3,4.5-6.8,2.89-2.58,6.23-3.41,8.25-3.72"/><path class="e" d="M291.63,79.42c3.69,8.82-4.23,19.43-8.81,25.56-8.79,11.77-18.91,17.19-36.44,26.32-20.43,10.64-30.64,15.96-41.65,15.75-9.28-.18-17.5-2.97-22.44,2.08-4.04,4.13-.86,8.36-4.36,14.06-3.79,6.17-11.4,7.55-33.68,11.09-15.95,2.54-23.92,3.81-25.7,4.01-31.28,3.65-46.93,5.48-53.32,4.77-10.7-1.18-39.54-4.36-51.74-26.07-8.12-14.46-4.63-29.58-4.19-31.36,.43-1.74,4.92-18.78,20.62-27.41,18.99-10.44,34.12,2.59,48.4-8.98,5.48-4.44,3.28-6.39,13.15-20.55,8.42-12.08,18.18-26.09,24.63-24.48,10.23,2.54,.74,41.41,16.94,49.67,8.58,4.37,14.48-4.88,38.29-5.98,18.27-.84,18.8,4.42,31.58,1.96,16.42-3.16,16.91-12.11,38.9-19.06,14.41-4.56,23.39-3.62,26.81-3.13,5.74,.83,19.26,2.79,23,11.74Z"/></g><text/><g class="h"><path class="f" d="M185.91,150.8c23.44,20.5,80.06-5.06,112.42-31.79,8.14-6.72,48.79-40.3,39.5-65.93-5.08-14.03-22.9-19.53-23.72-19.77-21.38-6.29-30.42,11.85-52.09,8.14-18.75-3.22-17.64-17.79-46.4-28.32-10.74-3.94-24.65-8.81-35.92-2.21-9.67,5.66-12.61,16.98-14.58,25.04,0,0-.35,1.37-.63,2.81-4.15,21.29,7.4,58.73,7.4,58.73,1.01,3.14,2.4,7.73,3.82,13.35,2.62,10.32,3.93,15.49,4.21,19.9,.43,6.69-2.15,12.94,5.98,20.05Z"/><path class="f" d="M119.12,46.19c3.34-2.4,19.68-13.63,38.46-8.85,3.03,.77,9.67,2.55,15.52,8.25,11.33,11.03,10,27.32,9.74,30.49-.99,12.14-6.39,15.31-12.33,30.38-3.03,7.69-5.97,13.44-7.07,22.14-.35,2.78-.91,7.42-.22,13.15,1.8,15.13,10.38,20.11,8.07,24.35-4.07,7.47-25.77,2.57-51.74-3.3-36.17-8.17-43-14.93-46.59-20.47-1.29-1.99-8.85-14.1-3.8-24.31,4.32-8.72,15.29-10.89,16.75-11.15,11.24-2.05,14.79,5.14,25.39,3.15,4.3-.81,8.41-4.05,10.29-5.29,2.69-1.78,4.73-3.47,8.44-6.88,11.9-10.95,13.68-14.45,20.64-18.16,1.1-.58,4-2.07,8.04-3.06,2.94-.72,6.24-1.48,10.23-.52,0,0,2.7,.65,4.97,2.08,5.53,3.48,8.24,13.17,7.75,22.27-.69,12.7-7.88,28.58-6.34,32.29,1.05,2.53,2.75,4.52,2.75,4.52s.4,.46,.78,.84c1.69,1.7,5.5,4.15,7.82,3.54,3.11-.82,2.27-6.81,5.1-12.89,2.04-4.38,5.15-7.03,14.35-12.91,14.01-8.96,17.25-9.52,26.74-15.56,13.62-8.67,21.26-13.7,22.18-21.96,.97-8.7-6.13-15.42-6.77-16.02-9.01-8.29-21.45-4.57-22.03-4.38-7.6,2.41-6.57,6.88-15.84,12.43-2.55,1.52-14.44,8.26-27.56,5.73-6.04-1.17-6.59-3.18-13.94-4.17-6.09-.81-10.9-.12-16.32,.69-5.48,.83-11.11,1.68-17.83,4.64-7.25,3.2-14.5,6.4-16.71,13.48-.8,2.56-.1,5.82,1.12,12.28,1.4,7.44,3.02,9.33,3.69,10.03,1.84,1.92,3.52,2.13,8.79,3.66,0,0,10.23,3.02,21.92,7.97,3.12,1.32,4.68,1.98,6.86,3.17,5.28,2.88,8.12,5.54,15.04,11.43,7.24,6.16,10.82,9.29,10.97,9.15,.79-.69-4.64-12.49-15.37-16.95-1.26-.52-5.82-1.16-14.96-2.43-10.12-1.41-15.17-2.12-16.51-2.19-5.46-.3-7.82,.01-11.13-1.71-1.3-.68-5.64-2.93-6.39-6.95-.38-2.02,1.22-4.96,4.42-10.76,2.93-5.31,3.95-6.3,4.5-6.8,2.89-2.58,6.23-3.41,8.25-3.72"/><path class="f" d="M294.65,81.38c3.69,8.82-4.23,19.43-8.81,25.56-8.79,11.77-18.91,17.19-36.44,26.32-20.43,10.64-30.64,15.96-41.65,15.75-9.28-.18-17.5-2.97-22.44,2.08-4.04,4.13-.86,8.36-4.36,14.06-3.79,6.17-11.4,7.55-33.68,11.09-15.95,2.54-23.92,3.81-25.7,4.01-31.28,3.65-46.93,5.48-53.32,4.77-10.7-1.18-39.54-4.36-51.74-26.07-8.12-14.46-4.63-29.58-4.19-31.36,.43-1.74,4.92-18.78,20.62-27.41,18.99-10.44,34.12,2.59,48.4-8.98,5.48-4.44,3.28-6.39,13.15-20.55,8.42-12.08,18.18-26.09,24.63-24.48,10.23,2.54,.74,41.41,16.94,49.67,8.58,4.37,14.48-4.88,38.29-5.98,18.27-.84,18.8,4.42,31.58,1.96,16.42-3.16,16.91-12.11,38.9-19.06,14.41-4.56,23.39-3.62,26.81-3.13,5.74,.83,19.26,2.79,23,11.74Z"/></g><text class="d" transform="translate(5.48 96.61)"><tspan x="0" y="0">VILD</tspan></text><text class="g" transform="translate(92.21 167.8)"><tspan x="0" y="0">SKUD</tspan></text></g></svg>